<svg xmlns="http://www.w3.org/2000/svg" width="276.75" height="75.487" viewBox="0 0 276.75 75.487">
  <g id="グループ_9726" data-name="グループ 9726" transform="translate(-76.688 -3988.563)">
    <g id="グループ_9574" data-name="グループ 9574" transform="translate(-285.5 598)">
      <line id="線_769" data-name="線 769" x1="60" transform="translate(578.606 3459.5)" fill="none" stroke="#333" stroke-width="1"/>
      <path id="パス_12684" data-name="パス 12684" d="M1.834-3.822a5.574,5.574,0,0,1-1.05-.084l.14.518a4.281,4.281,0,0,1,.924-.084h4.69V-.308c0,.182-.084.252-.266.252-.378,0-.882-.042-1.9-.14-.084-.014-.084.168,0,.182,1.288.266,1.526.448,1.582.8.042.224.084.266.252.266A1.32,1.32,0,0,0,6.986.784a.977.977,0,0,0,.448-.868c0-.392-.028-.728-.042-2.45v-.938h5.6c.14,0,.2-.056.2-.126S13.16-3.752,12.852-4c-.644-.518-.728-.574-.812-.574s-.14.056-.756.756H7.392v-.546c.364-.14.42-.224.42-.336a.118.118,0,0,0-.028-.1A11.571,11.571,0,0,0,9.968-6.286c.462-.056.588-.1.588-.238,0-.07-.028-.154-.238-.35-.476-.42-.532-.462-.616-.462s-.154.042-.574.434H4.466A6.147,6.147,0,0,1,3.318-7l.154.546a3.962,3.962,0,0,1,1.022-.1H9.086A9.874,9.874,0,0,1,7.462-4.928c-.2-.042-.5-.084-.98-.154a7.291,7.291,0,0,1,.056,1.26Zm.644-4.914a4.609,4.609,0,0,0-.056-.588.088.088,0,0,0-.168,0,2.032,2.032,0,0,1-.98,1.778c-.322.182-.42.364-.42.56a.485.485,0,0,0,.5.5c.574,0,1.092-.714,1.12-1.9h9.2a7.436,7.436,0,0,1-.518,1.372c-.042.07.056.154.126.1a7.021,7.021,0,0,0,1.022-.966c.1-.112.154-.154.392-.154.336,0,.462-.07.462-.238,0-.084-.042-.182-.308-.434-.5-.476-.574-.518-.658-.518s-.14.042-.574.49H9.366a12,12,0,0,0,1.61-1.778c.462,0,.56-.084.56-.224s-.182-.266-1.19-.714a6.432,6.432,0,0,1-.42,1.064A13.936,13.936,0,0,1,8.96-8.736Zm3.514-2.688A4.091,4.091,0,0,1,6.8-9.744c.084.434.182.546.434.546.28,0,.49-.224.49-.6,0-.6-.658-1.33-1.624-1.75C6.034-11.592,5.936-11.48,5.992-11.424Zm-2.87.266a3.933,3.933,0,0,1,.784,1.526c.112.462.21.574.448.574A.509.509,0,0,0,4.83-9.6c0-.588-.658-1.3-1.61-1.68A.082.082,0,0,0,3.122-11.158ZM23.128-2.38c-.112.14-.238.28-.364.42A11.146,11.146,0,0,1,19.026.756c-.07.042,0,.21.084.182a9.85,9.85,0,0,0,4.144-2.394c.112-.112.224-.238.336-.35.07.084.14.154.21.238A9.758,9.758,0,0,0,26.922.658,1.7,1.7,0,0,0,27.51.84c.1,0,.168-.056.21-.182.14-.378.238-.49.546-.574.07-.014.084-.126.014-.14A10,10,0,0,1,24.3-2.016,2.924,2.924,0,0,1,24-2.3a12.732,12.732,0,0,0,1.54-2.688c.42-.07.518-.126.518-.266s-.28-.308-1.2-.686a7.171,7.171,0,0,1-.392,1.288,9.862,9.862,0,0,1-.98,1.806,7.581,7.581,0,0,1-1.372-2.3.749.749,0,0,1-.056-.252c0-.042.056-.154.056-.2A.114.114,0,0,0,21.98-5.7c-.168,0-.448.126-.448.21s.07.112.14.168a.526.526,0,0,1,.154.28A9.219,9.219,0,0,0,23.128-2.38ZM17.5-8.5H16.464a4.307,4.307,0,0,1-1.008-.1l.154.532a4.186,4.186,0,0,1,.868-.084h.952a18.648,18.648,0,0,1-2.17,5.81c-.042.07.1.182.154.112A12.454,12.454,0,0,0,17.57-5.992C17.5-1.106,17.444.35,17.444.714c0,.21.07.322.35.322.336,0,.532-.126.532-.392,0-.434-.014-2.142-.014-6.762v-.938a2.574,2.574,0,0,1,.77,1.344c.056.266.154.364.308.364.224,0,.42-.182.42-.546,0-.462-.56-1.064-1.5-1.442v-.812h1.806c.14,0,.2-.042.2-.14,0-.056-.028-.14-.2-.28-.518-.462-.588-.49-.658-.49s-.126.028-.518.56h-.63v-2.38c.406-.182.5-.266.5-.378,0-.168-.238-.266-1.4-.378A10.715,10.715,0,0,1,17.5-9.9Zm5.7-.63H21.224a5.344,5.344,0,0,1-1.036-.084l.14.518a4.034,4.034,0,0,1,.9-.084h6.762c.14,0,.2-.056.2-.14s-.056-.168-.308-.378c-.56-.476-.672-.532-.756-.532s-.168.07-.714.7H24.038v-1.764c.406-.168.476-.252.476-.364,0-.154-.168-.238-1.386-.378a8.039,8.039,0,0,1,.07,1.26ZM24.64-7.91a5.927,5.927,0,0,1,1.918,2.128c.266.532.392.644.616.644.294,0,.42-.252.42-.588,0-.77-1.26-1.792-2.87-2.338A.091.091,0,0,0,24.64-7.91ZM19.656-4.564a8.2,8.2,0,0,0,2.7-2.786c.448-.028.5-.1.5-.224,0-.154-.154-.238-1.134-.686a4.224,4.224,0,0,1-.252.742,8.778,8.778,0,0,1-1.932,2.8C19.474-4.662,19.586-4.522,19.656-4.564ZM36.218-.14H31.836a8.241,8.241,0,0,1-1.3-.084l.14.532a6.1,6.1,0,0,1,1.162-.1H42.63c.14,0,.2-.042.2-.126s-.042-.154-.406-.448c-.686-.56-.756-.6-.84-.6s-.14.042-.826.826H37.1V-3.99h4.312c.14,0,.182-.056.182-.126s-.028-.154-.336-.406c-.658-.546-.728-.588-.812-.588s-.14.042-.77.77H37.1V-7.6h4.718c.126,0,.182-.056.182-.126,0-.1-.042-.168-.364-.434-.658-.546-.742-.6-.826-.6s-.14.056-.784.812H37.1V-10.71c.434-.168.518-.266.518-.392,0-.168-.168-.266-1.484-.392a32.491,32.491,0,0,1,.084,3.262v.28H33.376a17.961,17.961,0,0,0,.7-1.68c.406-.1.546-.154.546-.28,0-.182-.224-.266-1.358-.616A8.482,8.482,0,0,1,32.97-9.2a13.827,13.827,0,0,1-2.31,4.41c-.056.07.1.182.154.126a9.661,9.661,0,0,0,2.38-2.94h3.024V-4.34H33.46a7.1,7.1,0,0,1-1.19-.084l.14.518a5.541,5.541,0,0,1,1.064-.084h2.744ZM53.452-9.912a16.917,16.917,0,0,0,2.506-.8c.5.154.658.056.658-.056s-.154-.294-.924-.9a4.248,4.248,0,0,1-1.064.644,23.331,23.331,0,0,1-5.334,1.512c-.084.014-.056.2.028.2A23.531,23.531,0,0,0,52.6-9.716V-7.07h-2.59a5.773,5.773,0,0,1-1.078-.084l.14.518a5.684,5.684,0,0,1,.938-.084H52.6v2.856H50.68a4.685,4.685,0,0,0-1.064-.518,17.079,17.079,0,0,1,.084,2.3c0,1.862-.042,2.478-.042,2.716s.112.294.364.294c.35,0,.532-.1.532-.378V.14h5.04V.56c0,.224.084.294.378.294.35,0,.532-.084.532-.364,0-.2-.056-.98-.056-2.772v-.98c.35-.224.378-.294.378-.378s-.028-.14-.238-.322c-.406-.35-.476-.378-.56-.378s-.126.042-.546.476h-2.03V-6.72h4.256c.126,0,.182-.042.182-.126s-.042-.154-.308-.378c-.588-.518-.714-.63-.8-.63s-.154.112-.714.784H53.452Zm2.142,9.7h-5.04v-3.3h5.04ZM46.172-11.074a3.3,3.3,0,0,1,1.274,1.442c.154.322.252.434.448.434a.5.5,0,0,0,.462-.546c0-.672-.854-1.274-2.114-1.484C46.158-11.242,46.1-11.116,46.172-11.074Zm-.966,3.3A2.967,2.967,0,0,1,46.41-6.4c.126.322.266.434.448.434a.5.5,0,0,0,.462-.56c0-.6-.854-1.218-2.044-1.4C45.192-7.938,45.136-7.812,45.206-7.77Zm3.542-.2c-.854,2.044-1.484,3.472-2.128,4.746-.224.448-.448.5-.686.5a6.39,6.39,0,0,1-.714-.056c-.084-.014-.112.168-.028.2.9.238,1.162.434,1.162,1.232,0,.518-.1,1.134-.1,1.414,0,.49.21.742.49.742.392,0,.672-.266.672-.854,0-.672-.364-1.316-.364-2.016a2.509,2.509,0,0,1,.154-.728c.616-1.68,1.064-3.066,1.708-5.11C48.944-7.98,48.776-8.05,48.748-7.966Z" transform="translate(510.716 3465)"/>
    </g>
    <path id="パス_12683" data-name="パス 12683" d="M-277.062-30.625a9.862,9.862,0,0,1,3.688-7.906,12.923,12.923,0,0,1,8.563-3.094,20.42,20.42,0,0,1,2.594.156,19.426,19.426,0,0,1,2,.344q.781.188,2.25.594t2.594.656a42.207,42.207,0,0,1,.75,8.938q0,.437-.625.438-1.5,0-1.625-.625a9.628,9.628,0,0,0-2.656-5.344,7.419,7.419,0,0,0-5.719-2.594q-3.75,0-5.281,1.875a7.073,7.073,0,0,0-1.531,4.625,6.087,6.087,0,0,0,.438,2.281,12.357,12.357,0,0,0,.875,1.813,7.113,7.113,0,0,0,1.594,1.656q1.156.938,1.688,1.313t2.125,1.375q1.594,1,2.031,1.25.313.188,2.188,1.344t2.563,1.625q.688.469,2.156,1.688a11.873,11.873,0,0,1,2.125,2.156,12.762,12.762,0,0,1,1.25,2.344,7.4,7.4,0,0,1,.594,2.906,10.182,10.182,0,0,1-3.906,8.219A13.959,13.959,0,0,1-265.5.625a24.85,24.85,0,0,1-3.187-.219q-1.687-.219-2.812-.437t-2.844-.625q-1.719-.406-2.406-.531a66.857,66.857,0,0,1-1.562-9.937q0-.375,1-.375a1.874,1.874,0,0,1,1.563.563q2.125,9,10.375,9a7.885,7.885,0,0,0,5.313-1.875,6.616,6.616,0,0,0,2.188-5.312,6.9,6.9,0,0,0-.375-2.312,10.071,10.071,0,0,0-.781-1.75,5.507,5.507,0,0,0-1.437-1.469q-1.031-.781-1.594-1.156T-264.125-17q-1.5-.812-2.062-1.125-1.813-1.063-2.531-1.5t-2.375-1.531a12.571,12.571,0,0,1-2.406-1.937q-.75-.844-1.75-2.062a7.368,7.368,0,0,1-1.406-2.594A10.093,10.093,0,0,1-277.062-30.625Zm41.313,3.375q6.875,0,9.5,3.188,0,4.187-2.312,4.188a2.477,2.477,0,0,1-1.625-.469,9.328,9.328,0,0,1-1.437-1.719q-1.938-2.875-4.625-2.875a6.083,6.083,0,0,0-4.656,2.438Q-243-20.062-243-15.25a13.527,13.527,0,0,0,2.469,8.313,8.057,8.057,0,0,0,6.844,3.313,12.112,12.112,0,0,0,2.5-.25,11.973,11.973,0,0,0,2.031-.594,11.724,11.724,0,0,0,1.438-.687q.594-.344,1.031-.656l.438-.312q.375,0,.375.813a2.242,2.242,0,0,1-.375,1.125,11.474,11.474,0,0,1-3.687,3.156A10.446,10.446,0,0,1-235.25.375a11.868,11.868,0,0,1-8.906-3.906,13.308,13.308,0,0,1-3.719-9.531,16.284,16.284,0,0,1,3.125-9.969A10.518,10.518,0,0,1-235.75-27.25Zm30.375-.125q4.188,0,6,3t1.813,9.25v6.75a23.246,23.246,0,0,0,.5,5.5q.125.438,1.625.844a9.537,9.537,0,0,0,2.125.406q.188,0,.25.75a2.583,2.583,0,0,1-.062,1.063q-6.25-.313-6.687-.312-.187,0-6.562.313a1.509,1.509,0,0,1-.25-1.031q0-.781.25-.781a7.807,7.807,0,0,0,2.094-.406q1.344-.406,1.469-.844a18.9,18.9,0,0,0,.438-4.375v-6.625q0-5.75-1.594-7.719a5.938,5.938,0,0,0-4.906-1.969,5.952,5.952,0,0,0-3.719,1.469q-1.844,1.469-1.844,2.594V-8.437a23.6,23.6,0,0,0,.5,5.563q.125.438,1.625.844a9.537,9.537,0,0,0,2.125.406q.188,0,.25.75A2.583,2.583,0,0,1-210,.188q-6.25-.313-6.687-.312-.375,0-6.812.313a1.509,1.509,0,0,1-.25-1.031q0-.781.25-.781a9.171,9.171,0,0,0,2.219-.406q1.469-.406,1.594-.844a18.578,18.578,0,0,0,.438-4.312V-34.312a20.379,20.379,0,0,0-.375-4q-.312-1-3.187-1h-.562q-.375,0-.375-.687,0-1,.375-1,1.875-.187,3.469-.5a19.6,19.6,0,0,0,2.5-.625q.906-.312,1.531-.594a5.043,5.043,0,0,0,.875-.469l.313-.187h.125a.67.67,0,0,1,.5.344,1.705,1.705,0,0,1,.313.656,17.267,17.267,0,0,0-.687,5.438V-23.25q0,.25.125.25.063,0,.188-.125A14.947,14.947,0,0,1-210.219-26,10.162,10.162,0,0,1-205.375-27.375Zm28.813,2.5a6.327,6.327,0,0,0-5.406,3.031,12.714,12.714,0,0,0-2.094,7.406,14.535,14.535,0,0,0,2.656,8.781Q-178.75-2-175.187-2a6.361,6.361,0,0,0,5.438-3.125,13.016,13.016,0,0,0,2.125-7.5,14.043,14.043,0,0,0-2.687-8.656Q-173-24.875-176.562-24.875Zm.688-2.437a13.021,13.021,0,0,1,9.625,4.063,13.4,13.4,0,0,1,4,9.75,13.751,13.751,0,0,1-3.906,9.844A12.743,12.743,0,0,1-175.75.438a13.044,13.044,0,0,1-9.687-4.094,13.58,13.58,0,0,1-4-9.844,13.565,13.565,0,0,1,3.875-9.812A12.932,12.932,0,0,1-175.875-27.312Zm31.188,2.438a6.327,6.327,0,0,0-5.406,3.031,12.714,12.714,0,0,0-2.094,7.406,14.535,14.535,0,0,0,2.656,8.781Q-146.875-2-143.312-2a6.361,6.361,0,0,0,5.438-3.125,13.016,13.016,0,0,0,2.125-7.5,14.043,14.043,0,0,0-2.687-8.656Q-141.125-24.875-144.687-24.875Zm.688-2.437a13.021,13.021,0,0,1,9.625,4.063,13.4,13.4,0,0,1,4,9.75,13.751,13.751,0,0,1-3.906,9.844A12.743,12.743,0,0,1-143.875.438a13.044,13.044,0,0,1-9.687-4.094,13.58,13.58,0,0,1-4-9.844,13.565,13.565,0,0,1,3.875-9.812A12.932,12.932,0,0,1-144-27.312ZM-122.562-7.25V-34.312a20.379,20.379,0,0,0-.375-4q-.313-1-3.187-1h-.562q-.375,0-.375-.687,0-1,.375-1,1.875-.187,3.469-.5a19.6,19.6,0,0,0,2.5-.625q.906-.312,1.531-.594a9.6,9.6,0,0,0,.938-.469l.25-.187h.125a.67.67,0,0,1,.5.344,1.705,1.705,0,0,1,.313.656,17.267,17.267,0,0,0-.687,5.438v28.5a23.6,23.6,0,0,0,.5,5.563q.125.438,1.625.844a9.537,9.537,0,0,0,2.125.406q.188,0,.25.75a2.583,2.583,0,0,1-.062,1.063q-6.25-.313-6.687-.312-.375,0-6.812.313a1.509,1.509,0,0,1-.25-1.031q0-.781.25-.781a9.171,9.171,0,0,0,2.219-.406q1.469-.406,1.594-.844A18.9,18.9,0,0,0-122.562-7.25ZM-87.937-41q1.25,0,2.438-.062t2.563-.156q1.375-.094,2.25-.156a3,3,0,0,1,.125.938q0,.875-.25.875a10.449,10.449,0,0,0-2.25.438q-1.625.438-1.75.875a24.166,24.166,0,0,0-.562,5.813V-8.875a22.551,22.551,0,0,0,.563,5.5q.188.625,4.25.625h3q5.813,0,7.875-1.062a6.761,6.761,0,0,0,2.094-2.219,14.521,14.521,0,0,0,1.844-4.094q.125-.375.875-.375a2.294,2.294,0,0,1,1.563.375q-.312.813-.969,2.594t-1.031,2.875q-.375,1.094-.812,2.531A15.59,15.59,0,0,0-66.687.25q-3.25,0-10.156-.187T-88-.125l-7.562.188a1.632,1.632,0,0,1-.187-1q0-.813.188-.812a11.208,11.208,0,0,0,2.438-.375q1.562-.375,1.875-.937.437-.75.438-5.875V-32.562a25.548,25.548,0,0,0-.437-5.687q-.187-.5-1.781-.906a10.718,10.718,0,0,0-2.406-.406q-.25,0-.25-.812a1.448,1.448,0,0,1,.25-1q.812.063,3.313.219T-87.937-41Zm31.625,6.188a3.182,3.182,0,0,1-.875-2.25,3.017,3.017,0,0,1,.906-2.219,3.017,3.017,0,0,1,2.219-.906,3.017,3.017,0,0,1,2.219.906,3.017,3.017,0,0,1,.906,2.219,3.017,3.017,0,0,1-.906,2.219,3.017,3.017,0,0,1-2.219.906A3.182,3.182,0,0,1-56.312-34.812Zm5.125,26.375a23.6,23.6,0,0,0,.5,5.563q.125.438,1.625.844a9.537,9.537,0,0,0,2.125.406q.188,0,.25.75A2.583,2.583,0,0,1-46.75.188Q-53-.125-53.437-.125T-60.25.188A1.509,1.509,0,0,1-60.5-.844q0-.781.25-.781a9.171,9.171,0,0,0,2.219-.406q1.469-.406,1.594-.844A18.9,18.9,0,0,0-56-7.25V-19.062a4.975,4.975,0,0,0-.875-3.375,3.19,3.19,0,0,0-1.531-1.031,5.276,5.276,0,0,0-1.5-.281q-.594,0-.594-.125,0-1.5.375-1.562A73.572,73.572,0,0,0-51.5-27.062l.125-.062h.188q.25,0,.313.531a2.379,2.379,0,0,1,0,.781,36.627,36.627,0,0,0-.312,4.5Zm24.063-35q4.5,0,5.938,2.438,0,3.938-2.25,3.938A2.053,2.053,0,0,1-25-38.031,23.671,23.671,0,0,0-26.719-40a3.143,3.143,0,0,0-2.344-1q-2.75,0-4.25,3.375a19.41,19.41,0,0,0-1.5,7.938V-26.5a.276.276,0,0,0,.313.313h6.938q.313,0,.313.438a5.9,5.9,0,0,1-.75,2.5h-6.437a.331.331,0,0,0-.375.375V-8.437a22.867,22.867,0,0,0,.563,5.563q.125.438,1.531.844a8.465,8.465,0,0,0,1.969.406q.188,0,.25.75A2.583,2.583,0,0,1-30.562.188q-6.25-.313-6.687-.312-.187,0-6.562.313A1.138,1.138,0,0,1-44-.406a2.855,2.855,0,0,1,0-.844q.063-.375.188-.375a8.135,8.135,0,0,0,2.125-.406q1.375-.406,1.5-.844a22.469,22.469,0,0,0,.625-5.562V-22.812q0-.437-.312-.437h-3.312q-.187,0-.187-.375,0-.562,1-1.562a2.987,2.987,0,0,1,2.125-1h.375q.312,0,.313-.375v-.812a17.248,17.248,0,0,1,3.906-11.312Q-31.75-43.438-27.125-43.437Zm14.313,18.5a5.5,5.5,0,0,0-4.969,2.781A9.411,9.411,0,0,0-19.5-17.562q0,.437.375.438H-6.937q.313,0,.313-.625a8.742,8.742,0,0,0-1.687-4.594A5.149,5.149,0,0,0-12.812-24.937Zm.625-2.312a11.178,11.178,0,0,1,5.063,1.094,8.485,8.485,0,0,1,3.344,2.813,12.856,12.856,0,0,1,1.688,3.5,12.307,12.307,0,0,1,.531,3.531q0,1.25-.375,1.531a2.567,2.567,0,0,1-1.437.281h-15.75q-.5,0-.5.313a12.176,12.176,0,0,0,2.375,7.25,7.936,7.936,0,0,0,6.875,3.313,12.112,12.112,0,0,0,2.5-.25,11.973,11.973,0,0,0,2.031-.594,11.724,11.724,0,0,0,1.438-.687q.594-.344,1.031-.656l.438-.312q.375,0,.375.813a2.242,2.242,0,0,1-.375,1.125A11.474,11.474,0,0,1-6.625-1.031,10.446,10.446,0,0,1-11.937.375a11.868,11.868,0,0,1-8.906-3.906,13.308,13.308,0,0,1-3.719-9.531q0-6.562,3.531-10.375A11.55,11.55,0,0,1-12.187-27.25Z" transform="translate(355 4032)"/>
  </g>
</svg>
