<svg xmlns="http://www.w3.org/2000/svg" width="348.063" height="449.121" viewBox="0 0 348.063 449.121">
  <g id="sec_admission_ttl" transform="translate(-492.926 -4108.706)">
    <g id="グループ_9518" data-name="グループ 9518" transform="translate(82.5 760.753)">
      <path id="パス_12686" data-name="パス 12686" d="M5.076-6.93a9.423,9.423,0,0,1-1.728-.126l.162.684A8.163,8.163,0,0,1,5.04-6.48h.612A12.682,12.682,0,0,0,8.424-2.592,19.484,19.484,0,0,1,1.35.81c-.108.036-.054.27.054.252A17.15,17.15,0,0,0,9.2-1.944a9.157,9.157,0,0,0,.846.612A18.368,18.368,0,0,0,14.49.756a4.925,4.925,0,0,0,.99.234c.144,0,.252-.09.324-.306a1.1,1.1,0,0,1,.918-.846c.108-.036.126-.18.018-.2A15.841,15.841,0,0,1,10.8-1.98c-.306-.162-.612-.342-.9-.522a15.1,15.1,0,0,0,3.024-3.51c.594-.144.756-.216.756-.414,0-.09-.036-.18-.342-.486-.684-.612-.756-.648-.864-.648s-.18.036-.72.63Zm6.732.45A13.923,13.923,0,0,1,9.036-3.1,11.023,11.023,0,0,1,6.1-6.48ZM3.06-9.486a5.371,5.371,0,0,0-.072-.756c-.018-.108-.2-.126-.216-.018a2.527,2.527,0,0,1-1.3,2.142.692.692,0,0,0-.486.666.672.672,0,0,0,.684.684c.72,0,1.314-.954,1.386-2.268H14.94a14.282,14.282,0,0,1-.882,1.818c-.054.072.072.18.144.126.648-.5,1.08-.882,1.53-1.3a.593.593,0,0,1,.522-.234c.522-.036.684-.108.684-.288,0-.144-.054-.234-.4-.54-.756-.684-.846-.72-.936-.72-.108,0-.18.036-.756.684H11.9a16.439,16.439,0,0,0,2-2.25c.576-.018.738-.126.738-.288,0-.18-.54-.468-1.548-.81a6.166,6.166,0,0,1-.45,1.1c-.324.63-.81,1.53-1.278,2.25Zm4.824-2.7a3.734,3.734,0,0,1,.666,1.944c.036.378.162.558.486.558.36,0,.63-.288.63-.792a2.41,2.41,0,0,0-1.62-1.818C7.974-12.33,7.83-12.258,7.884-12.186Zm-3.33.252a4.29,4.29,0,0,1,.594,1.71c.036.432.162.612.468.612a.632.632,0,0,0,.63-.72c0-.576-.684-1.332-1.548-1.71C4.626-12.078,4.5-12.006,4.554-11.934ZM2.52-12.222a36.96,36.96,0,0,0,11.7-1.53c.612.2.954.162.954-.036,0-.18-.432-.612-1.3-1.206a6.8,6.8,0,0,1-1.53.72A38.83,38.83,0,0,1,2.52-12.492C2.412-12.492,2.412-12.222,2.52-12.222ZM31.41-13.9a9.644,9.644,0,0,0,2.07,2.808A11.586,11.586,0,0,0,35.388-9.72a.939.939,0,0,0,.432.18c.108,0,.144-.09.2-.234.162-.432.342-.612.666-.684.09-.018.126-.162.036-.18A9.275,9.275,0,0,1,34.11-11.7a7.066,7.066,0,0,1-2.376-2.322c.36-.09.45-.162.45-.288,0-.162-.144-.252-1.566-.72a5.685,5.685,0,0,1-.684,1.638,14.767,14.767,0,0,1-3.492,3.924c-.09.072.054.234.144.18A11.287,11.287,0,0,0,31.41-13.9ZM31.32-3.852A8.044,8.044,0,0,0,33.012-.828a9.579,9.579,0,0,0,2.25,1.854.574.574,0,0,0,.306.108c.108,0,.18-.036.234-.2.2-.54.36-.684.738-.792.108-.036.126-.162.018-.2a7.844,7.844,0,0,1-2.79-1.3,6.449,6.449,0,0,1-2.124-2.682h2.43v.36c0,.288.09.378.414.378.432,0,.666-.108.666-.45,0-.2-.072-.756-.072-2.376v-.756c.378-.252.414-.324.414-.432s-.036-.2-.27-.414c-.468-.432-.576-.468-.666-.468-.108,0-.162.054-.648.576h-2.25c.018-.666.018-1.314.018-1.98h2.34c.162,0,.234-.054.234-.162s-.054-.216-.306-.432c-.63-.522-.72-.576-.81-.576-.108,0-.18.09-.684.72H29.412a5.405,5.405,0,0,1-1.188-.108l.18.684a3.669,3.669,0,0,1,1.044-.126h1.224c0,.666-.018,1.314-.018,1.98H28.548a5.843,5.843,0,0,0-1.206-.612,18.967,18.967,0,0,1,.09,2.16c0,1.692-.054,2.232-.054,2.448,0,.27.108.36.45.36.4,0,.594-.126.594-.45v-.324h1.926A6.179,6.179,0,0,1,28.854-1.1,8.823,8.823,0,0,1,25.83,1.1c-.108.036-.018.252.09.216,2.826-.882,4.68-2.52,5.292-4.788Zm.126-.63a16.672,16.672,0,0,0,.216-2.682h2.412v2.682Zm-3.024,0V-7.164h2.232a20.559,20.559,0,0,1-.126,2.07c-.018.216-.054.414-.09.612Zm-6.678-.972H25.47a20.016,20.016,0,0,1-.63,4.428c-.216.684-.414.99-.792.99a12.825,12.825,0,0,1-1.8-.18c-.108-.018-.126.2-.018.234,1.152.324,1.368.558,1.458.99.036.216.09.216.306.216a1.394,1.394,0,0,0,.972-.378A2.76,2.76,0,0,0,25.74-.5a20.762,20.762,0,0,0,.72-4.68c.324-.18.4-.27.4-.36s-.018-.2-.27-.414c-.45-.414-.576-.468-.666-.468s-.162.054-.576.522h-.99V-8.19H26.5c.162,0,.234-.054.234-.162a.5.5,0,0,0-.234-.36c-.558-.468-.684-.54-.774-.54s-.18.072-.63.612h-.738v-2.124h2.124c.162,0,.234-.054.234-.162a.5.5,0,0,0-.234-.36c-.576-.486-.684-.54-.774-.54s-.18.054-.648.612h-.7v-2.2H26.91c.18,0,.252-.054.252-.162,0-.09-.036-.18-.252-.36-.684-.576-.774-.648-.882-.648-.09,0-.18.054-.7.72H21.888a8.13,8.13,0,0,0-1.188-.594c.09.918.09,1.62.09,3.978,0,3.744-.072,4.932-.072,5.274,0,.27.126.342.432.342.4,0,.594-.108.594-.414Zm0-5.76v-2.2H23.4v2.2Zm0,.45H23.4V-8.64H21.744Zm0,2.574H23.4V-5.9H21.744ZM23.49-4.536a3.061,3.061,0,0,1,.792,1.278c.09.306.144.414.324.414.216,0,.36-.2.36-.558,0-.486-.576-.972-1.35-1.26C23.526-4.7,23.418-4.608,23.49-4.536Zm-2.772.63a2.913,2.913,0,0,1-.936,2.2.772.772,0,0,0-.288.558.521.521,0,0,0,.522.558c.558,0,1.026-.882,1.026-2.214a6.01,6.01,0,0,0-.09-1.1C20.934-4.014,20.718-4.014,20.718-3.906Zm.864-.036a4.16,4.16,0,0,1,.2,1.314c0,.5-.036.864-.036,1.044a.322.322,0,0,0,.324.36c.342,0,.522-.252.522-.792a3.083,3.083,0,0,0-.846-2.016A.1.1,0,0,0,21.582-3.942Zm.99-.216a3.894,3.894,0,0,1,.558,1.782c.036.378.126.5.324.5.252,0,.45-.216.45-.666a2.52,2.52,0,0,0-1.17-1.728C22.662-4.32,22.536-4.23,22.572-4.158ZM46.566-.18H40.932a10.6,10.6,0,0,1-1.674-.108l.18.684A7.837,7.837,0,0,1,40.932.27H54.81c.18,0,.252-.054.252-.162,0-.09-.054-.2-.522-.576-.882-.72-.972-.774-1.08-.774S53.28-1.188,52.4-.18H47.7V-5.13h5.544c.18,0,.234-.072.234-.162,0-.108-.036-.2-.432-.522C52.2-6.516,52.11-6.57,52-6.57s-.18.054-.99.99H47.7V-9.774h6.066c.162,0,.234-.072.234-.162,0-.126-.054-.216-.468-.558-.846-.7-.954-.774-1.062-.774-.09,0-.18.072-1.008,1.044H47.7V-13.77c.558-.216.666-.342.666-.5,0-.216-.216-.342-1.908-.5a41.774,41.774,0,0,1,.108,4.194v.36H42.912a23.092,23.092,0,0,0,.9-2.16c.522-.126.7-.2.7-.36,0-.234-.288-.342-1.746-.792a10.905,10.905,0,0,1-.378,1.71,17.777,17.777,0,0,1-2.97,5.67c-.072.09.126.234.2.162a12.422,12.422,0,0,0,3.06-3.78h3.888V-5.58H43.02a9.129,9.129,0,0,1-1.53-.108l.18.666a7.124,7.124,0,0,1,1.368-.108h3.528Zm19.422-11.2a8.753,8.753,0,0,1,.972,0c2.754.144,4.752,1.926,4.752,4.662,0,3.51-3.438,5.166-6.444,5.688-.252.054-.306.144-.306.288,0,.108.108.216.306.2,3.69-.2,7.632-2.088,7.632-5.868,0-3.258-2.538-5.616-6.156-5.616a7.47,7.47,0,0,0-5.22,1.944,6.092,6.092,0,0,0-1.962,4.464,4.394,4.394,0,0,0,.63,2.376,1.854,1.854,0,0,0,1.44.936A2.679,2.679,0,0,0,63.414-3.51a18.051,18.051,0,0,0,2.592-4.77,6.489,6.489,0,0,0,.342-1.764A2.514,2.514,0,0,0,65.988-11.376Zm-.558.072a1.112,1.112,0,0,1,.216.756,3.677,3.677,0,0,1-.252,1.3A16.7,16.7,0,0,1,62.91-4.536c-.558.738-.936,1.044-1.26,1.044A1.083,1.083,0,0,1,60.8-4.1a3.668,3.668,0,0,1-.432-1.818A5.023,5.023,0,0,1,61.83-9.486,6.154,6.154,0,0,1,65.43-11.3ZM89.424-5.526c.18-.612.324-1.206.5-1.908a1.017,1.017,0,0,1,.288-.432.526.526,0,0,0,.2-.378c0-.36-.252-.612-.63-.918a2.445,2.445,0,0,0-1.4-.612c-.18,0-.4.09-.4.252,0,.09.054.108.162.162.522.234.864.522.864,1.044a9.673,9.673,0,0,1-.5,2.5A14.563,14.563,0,0,0,83.844-6.84C84.366-7.866,84.87-9,85.23-9.774a28.253,28.253,0,0,1,1.242-2.538.648.648,0,0,0,.234-.45c0-.2-.234-.4-.432-.5a1.87,1.87,0,0,0-.774-.288c-.126,0-.2.036-.342.2a1.044,1.044,0,0,1-.522.36,10.723,10.723,0,0,1-2.484.54c-.288,0-.558-.288-.792-.738-.054-.108-.108-.18-.18-.18-.036,0-.108.054-.144.144a.683.683,0,0,0-.072.342,2.992,2.992,0,0,0,.342.936c.18.306.414.576.72.576a.47.47,0,0,0,.324-.108,2.641,2.641,0,0,1,.774-.342c.522-.18,1.134-.378,1.926-.576.18-.036.234.018.18.18A44.8,44.8,0,0,1,83-6.822a5.98,5.98,0,0,0-3.384,1.116A2.725,2.725,0,0,0,78.39-3.6a1.222,1.222,0,0,0,1.224,1.368,2.3,2.3,0,0,0,1.44-.468,11.773,11.773,0,0,0,2.484-3.492,11.889,11.889,0,0,1,4.644,1.206,9.744,9.744,0,0,1-4.3,5.2c-.18.108-.234.162-.234.234,0,.126.108.27.2.27A.457.457,0,0,0,84.06.684a9.687,9.687,0,0,0,5.022-5.238,14.94,14.94,0,0,1,2.376,1.53,1.131,1.131,0,0,0,.63.306.532.532,0,0,0,.486-.576,1.157,1.157,0,0,0-.45-.81A13.869,13.869,0,0,0,89.424-5.526Zm-6.732-.648a9.317,9.317,0,0,1-1.53,2.232c-.594.594-.99.81-1.4.81-.4,0-.594-.306-.594-.7a2.026,2.026,0,0,1,.882-1.512A4.58,4.58,0,0,1,82.692-6.174ZM101.7-9.72a52.663,52.663,0,0,1-3.438,6.642.89.89,0,0,0-.126.432.521.521,0,0,0,.486.54.6.6,0,0,0,.594-.36c1.368-2.7,2.34-4.95,3.4-7.4a27.19,27.19,0,0,0,2.826-.756c.36-.126.594-.252.594-.576a.552.552,0,0,0-.576-.486,2.462,2.462,0,0,0-.918.288,10.987,10.987,0,0,1-1.53.576c.216-.486.4-.918.522-1.206.162-.36.216-.576.468-.738a.444.444,0,0,0,.216-.414c0-.216-.234-.4-.576-.558a3.942,3.942,0,0,0-1.4-.414c-.378,0-.612.144-.612.324,0,.072.072.09.144.108a1.76,1.76,0,0,1,.684.27c.288.18.324.306.324.45a2.94,2.94,0,0,1-.09.63c-.18.576-.36,1.116-.63,1.764a12.028,12.028,0,0,1-2.412.288,2.442,2.442,0,0,1-1.44-.414.474.474,0,0,0-.27-.108.172.172,0,0,0-.144.144.441.441,0,0,0,.072.216,2.1,2.1,0,0,0,1.818.936A13.5,13.5,0,0,0,101.7-9.72Zm6.354,1.3c.108.036.09.108-.018.144-1.4.414-2.052,1.08-2.052,2.484,0,.81.18,1.908.288,2.88a7.788,7.788,0,0,0-1.566-.126c-1.386,0-2.628.72-2.628,1.89,0,.9.882,1.71,2.466,1.71a2.835,2.835,0,0,0,2.16-.684,2.515,2.515,0,0,0,.594-1.638A9.894,9.894,0,0,1,109.854-.2a.974.974,0,0,0,.468.2.5.5,0,0,0,.54-.522.8.8,0,0,0-.306-.63,11.535,11.535,0,0,0-3.33-1.566,19.263,19.263,0,0,1-.558-3.528,1.65,1.65,0,0,1,1.728-1.62,1.963,1.963,0,0,1,1.476.7.932.932,0,0,0,.594.288.445.445,0,0,0,.45-.45c0-.4-.216-.666-.756-1.026a6.133,6.133,0,0,0-3.114-.828,7.121,7.121,0,0,0-1.53.2c-.18.054-.252.126-.252.27,0,.09.126.162.27.144a6.255,6.255,0,0,1,.954-.072A4.52,4.52,0,0,1,108.054-8.424Zm-1.71,6.336A1.757,1.757,0,0,1,105.858-.7a1.978,1.978,0,0,1-1.494.45c-1.152,0-1.728-.432-1.728-.972,0-.738.936-1.134,2.088-1.134A5.151,5.151,0,0,1,106.344-2.088Zm18.072-8.172a11.442,11.442,0,0,1-.486-1.926,1.778,1.778,0,0,1,.054-.5,1.633,1.633,0,0,0,.09-.378c0-.414-.792-.828-1.584-.828a1.647,1.647,0,0,0-.9.324c-.18.144-.252.2-.252.342,0,.108.09.144.2.144.126,0,.342-.054.666-.054a.547.547,0,0,1,.4.108,1.3,1.3,0,0,1,.288.594c.252.774.5,1.548.792,2.412a9.621,9.621,0,0,1-3.006.612,3.939,3.939,0,0,1-2.142-.648.536.536,0,0,0-.27-.09.194.194,0,0,0-.18.18.484.484,0,0,0,.072.234A3.475,3.475,0,0,0,121-8.6a9.95,9.95,0,0,0,3.024-.558,26.29,26.29,0,0,0,2,3.8,18.673,18.673,0,0,0-3.06-.324c-1.962,0-4.1.774-4.1,2.808,0,2.322,3.312,3.132,6.156,3.132,1.26,0,1.53-.162,1.53-.558,0-.234-.144-.4-.432-.54a1.7,1.7,0,0,0-.738-.162,1.544,1.544,0,0,0-.4.036,2.355,2.355,0,0,1-.666.036c-1.944,0-4.716-.468-4.716-2.16,0-1.494,1.818-1.944,2.97-1.944a9.961,9.961,0,0,1,2.79.378,3.1,3.1,0,0,1,1.224.738.729.729,0,0,0,.612.324c.252,0,.414-.306.414-.684a1.226,1.226,0,0,0-.324-.9c-.234-.27-.342-.432-.63-.81a17.387,17.387,0,0,1-1.908-3.384,18.691,18.691,0,0,0,3.2-1.368.621.621,0,0,0,.36-.5c0-.252-.234-.45-.63-.45a.984.984,0,0,0-.5.144c-.234.126-.4.252-.774.45C125.946-10.872,125.172-10.548,124.416-10.26Zm17.856-.342a27.8,27.8,0,0,1-3.6.324,3.164,3.164,0,0,1-1.944-.54.478.478,0,0,0-.252-.09.139.139,0,0,0-.144.126.363.363,0,0,0,.09.252A3.214,3.214,0,0,0,139.14-9.5a27.225,27.225,0,0,0,3.15-.27c.036.972.054,1.89.072,2.862a16.226,16.226,0,0,1-1.926.126c-.972,0-1.422-.234-1.422-.666a1.68,1.68,0,0,1,.072-.558.43.43,0,0,0,.036-.162c0-.09-.036-.126-.162-.126-.09,0-.234.162-.306.288a1.61,1.61,0,0,0-.18.792c0,.666.594,1.206,2.088,1.206a17.693,17.693,0,0,0,1.818-.09c.018.972.036,2.124.072,3.258a11.77,11.77,0,0,0-1.728-.162c-1.314,0-3.06.5-3.06,1.746,0,1.35,1.728,1.728,2.79,1.728a3.351,3.351,0,0,0,2.25-.576,1.891,1.891,0,0,0,.648-1.62A13.705,13.705,0,0,1,146.808.18a1.19,1.19,0,0,0,.666.234.555.555,0,0,0,.5-.576c0-.36-.2-.576-.666-.846a18.255,18.255,0,0,0-3.978-1.656c-.09-1.152-.126-2.412-.162-3.564a12.834,12.834,0,0,0,3.168-.72c.342-.126.468-.306.468-.558-.018-.252-.234-.432-.594-.432a1.421,1.421,0,0,0-.828.27,2.635,2.635,0,0,1-.63.27,9.035,9.035,0,0,1-1.6.36c-.018-.972-.018-1.89-.018-2.862,1.26-.18,2.646-.468,3.708-.72.7-.144.882-.306.882-.594,0-.342-.36-.468-1.044-.468a2.582,2.582,0,0,0-.9.252,5.209,5.209,0,0,1-.756.27,11.475,11.475,0,0,1-1.854.4,11.14,11.14,0,0,1,.036-1.3,1.045,1.045,0,0,1,.252-.666.47.47,0,0,0,.216-.4c0-.18-.216-.486-.72-.792a2.212,2.212,0,0,0-1.1-.324,1.255,1.255,0,0,0-.684.18.335.335,0,0,0-.2.288.123.123,0,0,0,.126.126,1.1,1.1,0,0,1,.936.252c.162.18.2.4.216.972C142.254-11.772,142.254-11.232,142.272-10.6Zm.162,8.6a1.39,1.39,0,0,1-.45,1.224,2.424,2.424,0,0,1-1.71.468c-1.242,0-2.052-.324-2.052-.972,0-.666.882-1.044,2.3-1.044A6.15,6.15,0,0,1,142.434-2Z" transform="translate(610.51 3464)"/>
      <line id="線_769" data-name="線 769" x1="90" transform="translate(511.5 3457.5)" fill="none" stroke="#333" stroke-width="1"/>
    </g>
    <path id="パス_12685" data-name="パス 12685" d="M35.645-64.453,55.176-12.891q1.758,4.59,2.832,7.031a4.841,4.841,0,0,0,3.027,2.393,11.559,11.559,0,0,0,3.613.928q.391,0,.391,1.855a3.213,3.213,0,0,1-.2.977Q55.078-.2,54.1-.2,54-.2,42.773.293a2.228,2.228,0,0,1-.342-1.611q.049-1.221.439-1.221a11.356,11.356,0,0,0,2.93-.488q1.758-.488,2.051-1.27a6.421,6.421,0,0,0,.2-1.562,15.465,15.465,0,0,0-.342-2.979q-.342-1.709-.635-2.686L46.68-12.6l-4-11.035a.787.787,0,0,0-.586-.391q-3.809-.293-7.422-.293-5.078,0-12.4.488l-.488.293-4.2,10.742a25.682,25.682,0,0,0-1.66,6.738A2.285,2.285,0,0,0,16.7-4.1a7.366,7.366,0,0,0,2.832,1.123,14.682,14.682,0,0,0,2.832.439q.293,0,.342,1.172a4.441,4.441,0,0,1-.146,1.66Q12.793-.2,12.5-.2q-1.953,0-3.418.1T5.811.1Q4,.2,2.344.293a2.079,2.079,0,0,1-.391-1.465q0-1.367.391-1.367a12.456,12.456,0,0,0,3.027-.488A4.64,4.64,0,0,0,7.91-4.395a39.058,39.058,0,0,0,4.59-9.18L29.492-57.227q.2-.488.537-1.562t.537-1.611q.2-.537.586-1.367a7.394,7.394,0,0,1,.684-1.221q.293-.391.732-.879a2.434,2.434,0,0,1,.977-.684,3.557,3.557,0,0,1,1.221-.2ZM24.316-29.2q5.078.2,6.934.2,4.3,0,8.887-.293l.293-.488L32.52-51.367l-8.4,21.777Q24.121-29.2,24.316-29.2Zm66.7-9.668a10.019,10.019,0,0,0-8.887,5.078,21.577,21.577,0,0,0-3.223,11.816A20.4,20.4,0,0,0,82.715-9.619,12.325,12.325,0,0,0,93.262-4.395a7.973,7.973,0,0,0,5.176-1.514,4.962,4.962,0,0,0,1.855-4.053V-33.2a5.065,5.065,0,0,0-2.2-3.857Q95.9-38.867,91.016-38.867Zm1.27-4.1a15.391,15.391,0,0,1,7.324,1.66q.684,0,.684-1.758V-53.613a31.842,31.842,0,0,0-.586-6.25q-.488-1.563-4.98-1.562h-.879q-.586,0-.586-1.074,0-1.563.586-1.562,2.93-.293,5.42-.781a30.626,30.626,0,0,0,3.906-.977q1.416-.488,2.393-.928a15,15,0,0,0,1.465-.732l.391-.293h.2a1.047,1.047,0,0,1,.781.537,2.664,2.664,0,0,1,.488,1.025,26.98,26.98,0,0,0-1.074,8.5V-13.77a37.044,37.044,0,0,0,.586,7.422,1.745,1.745,0,0,0,1.074,1.074,5.962,5.962,0,0,0,1.807.488,17.259,17.259,0,0,0,1.807.1l.879.1q.293.1.293,1.172,0,1.465-.586,1.465-1.465.1-3.271.391t-3.418.635q-1.611.342-2.979.684t-2.246.635l-.879.2q-.586,0-.586-1.66V-2.246q0-.586-.391-.391A21.472,21.472,0,0,1,89.551.391,17.957,17.957,0,0,1,75.977-5.371a19.3,19.3,0,0,1-5.469-13.77A23.675,23.675,0,0,1,77.2-35.791Q83.887-42.969,92.285-42.969Zm54.3.2a9.973,9.973,0,0,1,6.494,2.1,10.972,10.972,0,0,1,3.564,4.834q7.324-6.934,15.137-6.934,12.3,0,12.3,18.75v10.84a36.871,36.871,0,0,0,.781,8.691q.2.684,2.539,1.318a14.9,14.9,0,0,0,3.32.635q.293,0,.391,1.172a4.036,4.036,0,0,1-.1,1.66Q181.25-.2,180.566-.2q-.586,0-10.645.488a2.357,2.357,0,0,1-.391-1.611q0-1.221.391-1.221a14.329,14.329,0,0,0,3.467-.635q2.295-.635,2.49-1.318a26.642,26.642,0,0,0,.684-6.25V-21.777q0-15.039-9.863-15.039a9.729,9.729,0,0,0-6.25,2.1q-2.637,2.1-2.637,3.467l.1.391v.488a47.654,47.654,0,0,1,.391,7.031V-12.3a32.123,32.123,0,0,0,.781,7.813q.2.684,2.539,1.318a14.9,14.9,0,0,0,3.32.635q.293,0,.391,1.172a4.036,4.036,0,0,1-.1,1.66Q155.469-.2,154.785-.2q-.586,0-10.645.488a2.357,2.357,0,0,1-.391-1.611q0-1.221.391-1.221a14.329,14.329,0,0,0,3.467-.635q2.295-.635,2.49-1.318a29.528,29.528,0,0,0,.684-6.836v-9.961q0-15.527-9.375-15.527a9.944,9.944,0,0,0-5.908,2.2q-2.979,2.2-2.979,4.248v17.188a36.871,36.871,0,0,0,.781,8.691q.2.684,2.539,1.318a14.9,14.9,0,0,0,3.32.635q.293,0,.391,1.172a4.036,4.036,0,0,1-.1,1.66Q129.687-.2,129-.2q-.586,0-10.645.488a2.357,2.357,0,0,1-.391-1.611q0-1.221.391-1.221a14.329,14.329,0,0,0,3.467-.635q2.295-.635,2.49-1.318A29.528,29.528,0,0,0,125-11.328V-29.785q0-3.809-1.367-5.273a4.984,4.984,0,0,0-2.393-1.611,8.244,8.244,0,0,0-2.344-.439q-.928,0-.928-.2,0-2.344.586-2.441a114.956,114.956,0,0,0,13.477-2.539,1.336,1.336,0,0,0,.293-.049l.2-.049q.391,0,.488.83a3.717,3.717,0,0,1,0,1.221,31.711,31.711,0,0,0-.391,3.906q0,.391.2.391.1,0,.293-.2a24.872,24.872,0,0,1,6.1-4.443A15.449,15.449,0,0,1,146.582-42.773Zm56.543-11.621a4.971,4.971,0,0,1-1.367-3.516,4.715,4.715,0,0,1,1.416-3.467,4.715,4.715,0,0,1,3.467-1.416,4.715,4.715,0,0,1,3.467,1.416,4.715,4.715,0,0,1,1.416,3.467,4.715,4.715,0,0,1-1.416,3.467,4.715,4.715,0,0,1-3.467,1.416A4.971,4.971,0,0,1,203.125-54.395Zm8.008,41.211a36.871,36.871,0,0,0,.781,8.691q.2.684,2.539,1.318a14.9,14.9,0,0,0,3.32.635q.293,0,.391,1.172a4.036,4.036,0,0,1-.1,1.66Q208.3-.2,207.617-.2T196.973.293a2.357,2.357,0,0,1-.391-1.611q0-1.221.391-1.221a14.329,14.329,0,0,0,3.467-.635q2.295-.635,2.49-1.318a29.528,29.528,0,0,0,.684-6.836V-29.785q0-3.809-1.367-5.273a4.984,4.984,0,0,0-2.393-1.611,8.244,8.244,0,0,0-2.344-.439q-.928,0-.928-.2,0-2.344.586-2.441a114.956,114.956,0,0,0,13.477-2.539l.2-.1h.293q.391,0,.488.83a3.717,3.717,0,0,1,0,1.221,57.23,57.23,0,0,0-.488,7.031Zm27.246-29.492a34.652,34.652,0,0,1,5.42.537q3.271.537,4.541.732a56.515,56.515,0,0,1,1.172,9.961q0,.488-1.27.488-1.367,0-1.465-.684a10.173,10.173,0,0,0-2.783-5.176,7,7,0,0,0-5.225-2.441q-7.031,0-7.031,5.762a7.865,7.865,0,0,0,.391,2.588,5.333,5.333,0,0,0,1.514,2.148q1.123,1.025,1.709,1.465a29.08,29.08,0,0,0,2.588,1.563q2,1.123,2.49,1.416.391.2,2.295,1.318t2.686,1.611q.781.488,2.295,1.66a11.5,11.5,0,0,1,2.2,2.1,12.788,12.788,0,0,1,1.318,2.344,6.98,6.98,0,0,1,.635,2.881,12.166,12.166,0,0,1-4.492,9.619,15.68,15.68,0,0,1-10.547,3.857,26.689,26.689,0,0,1-3.76-.244A40.981,40.981,0,0,1,229,0q-2.344-.586-3.613-.781a27.662,27.662,0,0,1-1.123-4.883,34.912,34.912,0,0,1-.537-5.273,2.371,2.371,0,0,1,1.172-.586q1.465,0,1.563.586a10.774,10.774,0,0,0,3.662,5.713,9.788,9.788,0,0,0,6.689,2.783,7.619,7.619,0,0,0,5.127-1.709,6.126,6.126,0,0,0,2-4.932,7.433,7.433,0,0,0-.635-3.076A6.815,6.815,0,0,0,241.26-14.7a25.04,25.04,0,0,0-2.637-1.855q-1.221-.732-3.467-1.9t-3.32-1.855q-7.617-4.395-7.617-10.449a10.415,10.415,0,0,1,4.248-8.594A15.632,15.632,0,0,1,238.379-42.676Zm35.059,0a34.653,34.653,0,0,1,5.42.537q3.271.537,4.541.732a56.518,56.518,0,0,1,1.172,9.961q0,.488-1.27.488-1.367,0-1.465-.684a10.173,10.173,0,0,0-2.783-5.176,7,7,0,0,0-5.225-2.441q-7.031,0-7.031,5.762a7.865,7.865,0,0,0,.391,2.588A5.333,5.333,0,0,0,268.7-28.76q1.123,1.025,1.709,1.465A29.082,29.082,0,0,0,273-25.732q2,1.123,2.49,1.416.391.2,2.295,1.318t2.686,1.611q.781.488,2.295,1.66a11.5,11.5,0,0,1,2.2,2.1,12.789,12.789,0,0,1,1.318,2.344,6.979,6.979,0,0,1,.635,2.881,12.166,12.166,0,0,1-4.492,9.619,15.68,15.68,0,0,1-10.547,3.857,26.689,26.689,0,0,1-3.76-.244A40.982,40.982,0,0,1,264.063,0q-2.344-.586-3.613-.781a27.661,27.661,0,0,1-1.123-4.883,34.914,34.914,0,0,1-.537-5.273,2.372,2.372,0,0,1,1.172-.586q1.465,0,1.563.586a10.774,10.774,0,0,0,3.662,5.713,9.788,9.788,0,0,0,6.689,2.783A7.619,7.619,0,0,0,277-4.15a6.126,6.126,0,0,0,2-4.932,7.433,7.433,0,0,0-.635-3.076,6.815,6.815,0,0,0-2.051-2.539,25.037,25.037,0,0,0-2.637-1.855q-1.221-.732-3.467-1.9t-3.32-1.855q-7.617-4.395-7.617-10.449a10.415,10.415,0,0,1,4.248-8.594A15.632,15.632,0,0,1,273.438-42.676Zm26.074-11.719a4.971,4.971,0,0,1-1.367-3.516,4.715,4.715,0,0,1,1.416-3.467,4.715,4.715,0,0,1,3.467-1.416,4.715,4.715,0,0,1,3.467,1.416,4.715,4.715,0,0,1,1.416,3.467,4.715,4.715,0,0,1-1.416,3.467,4.715,4.715,0,0,1-3.467,1.416A4.971,4.971,0,0,1,299.512-54.395Zm8.008,41.211a36.87,36.87,0,0,0,.781,8.691q.2.684,2.539,1.318a14.9,14.9,0,0,0,3.32.635q.293,0,.391,1.172a4.036,4.036,0,0,1-.1,1.66Q304.688-.2,304-.2T293.359.293a2.357,2.357,0,0,1-.391-1.611q0-1.221.391-1.221a14.329,14.329,0,0,0,3.467-.635q2.295-.635,2.49-1.318A29.529,29.529,0,0,0,300-11.328V-29.785q0-3.809-1.367-5.273a4.984,4.984,0,0,0-2.393-1.611,8.244,8.244,0,0,0-2.344-.439q-.928,0-.928-.2,0-2.344.586-2.441a114.957,114.957,0,0,0,13.477-2.539l.2-.1h.293q.391,0,.488.83a3.718,3.718,0,0,1,0,1.221,57.227,57.227,0,0,0-.488,7.031Zm32.324-25.684a9.887,9.887,0,0,0-8.447,4.736,19.866,19.866,0,0,0-3.271,11.572,22.711,22.711,0,0,0,4.15,13.721q4.15,5.713,9.717,5.713,5.176,0,8.5-4.883a20.338,20.338,0,0,0,3.32-11.719,21.943,21.943,0,0,0-4.2-13.525Q345.41-38.867,339.844-38.867Zm1.074-3.809a20.346,20.346,0,0,1,15.039,6.348,20.94,20.94,0,0,1,6.25,15.234,21.486,21.486,0,0,1-6.1,15.381,19.911,19.911,0,0,1-14.99,6.4,20.381,20.381,0,0,1-15.137-6.4,21.219,21.219,0,0,1-6.25-15.381,21.2,21.2,0,0,1,6.055-15.332A20.207,20.207,0,0,1,340.918-42.676Zm56.445-.1q6.836,0,9.57,4.883t2.734,15.82v8.887a36.87,36.87,0,0,0,.781,8.691q.2.684,2.539,1.318a14.9,14.9,0,0,0,3.32.635q.293,0,.391,1.172a4.036,4.036,0,0,1-.1,1.66Q406.836-.2,406.152-.2q-.2,0-10.254.488a2.357,2.357,0,0,1-.391-1.611q0-1.221.391-1.221a12.2,12.2,0,0,0,3.271-.635q2.1-.635,2.295-1.318a29.529,29.529,0,0,0,.684-6.836v-9.766q0-9.082-2.344-12.4t-7.617-3.32a9.525,9.525,0,0,0-6.006,2.295q-2.881,2.295-2.881,4.15v17.188a36.87,36.87,0,0,0,.781,8.691q.2.684,2.539,1.318a14.9,14.9,0,0,0,3.32.635q.293,0,.391,1.172a4.036,4.036,0,0,1-.1,1.66Q380.469-.2,379.785-.2q-.586,0-10.645.488a2.357,2.357,0,0,1-.391-1.611q0-1.221.391-1.221a14.329,14.329,0,0,0,3.467-.635q2.295-.635,2.49-1.318a29.529,29.529,0,0,0,.684-6.836V-29.785q0-3.809-1.367-5.273a4.984,4.984,0,0,0-2.393-1.611,8.244,8.244,0,0,0-2.344-.439q-.928,0-.928-.2,0-2.344.586-2.441a114.957,114.957,0,0,0,13.477-2.539,1.336,1.336,0,0,0,.293-.049l.2-.049q.391,0,.488.83a3.718,3.718,0,0,1,0,1.221,31.714,31.714,0,0,0-.391,3.906q0,.391.2.391.1,0,.293-.2a24.872,24.872,0,0,1,6.1-4.443A15.449,15.449,0,0,1,397.363-42.773Zm40.234.1a34.653,34.653,0,0,1,5.42.537q3.271.537,4.541.732a56.518,56.518,0,0,1,1.172,9.961q0,.488-1.27.488-1.367,0-1.465-.684a10.173,10.173,0,0,0-2.783-5.176,7,7,0,0,0-5.225-2.441q-7.031,0-7.031,5.762a7.865,7.865,0,0,0,.391,2.588,5.333,5.333,0,0,0,1.514,2.148q1.123,1.025,1.709,1.465a29.082,29.082,0,0,0,2.588,1.563q2,1.123,2.49,1.416.391.2,2.295,1.318t2.686,1.611q.781.488,2.295,1.66a11.5,11.5,0,0,1,2.2,2.1,12.789,12.789,0,0,1,1.318,2.344,6.979,6.979,0,0,1,.635,2.881,12.166,12.166,0,0,1-4.492,9.619,15.68,15.68,0,0,1-10.547,3.857,26.689,26.689,0,0,1-3.76-.244A40.982,40.982,0,0,1,428.223,0q-2.344-.586-3.613-.781a27.661,27.661,0,0,1-1.123-4.883,34.914,34.914,0,0,1-.537-5.273,2.372,2.372,0,0,1,1.172-.586q1.465,0,1.563.586a10.774,10.774,0,0,0,3.662,5.713,9.788,9.788,0,0,0,6.689,2.783,7.619,7.619,0,0,0,5.127-1.709,6.126,6.126,0,0,0,2-4.932,7.433,7.433,0,0,0-.635-3.076,6.815,6.815,0,0,0-2.051-2.539,25.037,25.037,0,0,0-2.637-1.855q-1.221-.732-3.467-1.9t-3.32-1.855q-7.617-4.395-7.617-10.449a10.415,10.415,0,0,1,4.248-8.594A15.632,15.632,0,0,1,437.6-42.676Z" transform="translate(494 4106.753) rotate(90)"/>
  </g>
</svg>
