<svg xmlns="http://www.w3.org/2000/svg" width="299.047" height="225.5" viewBox="0 0 299.047 225.5">
  <g id="グループ_9725" data-name="グループ 9725" transform="translate(-24.813 -3324.25)">
    <path id="パス_12680" data-name="パス 12680" d="M22.813-41.25l12.5,33q1.125,2.938,1.813,4.5a3.1,3.1,0,0,0,1.938,1.531,7.4,7.4,0,0,0,2.313.594q.25,0,.25,1.188A2.057,2.057,0,0,1,41.5.188q-6.25-.313-6.875-.312-.063,0-7.25.313a1.426,1.426,0,0,1-.219-1.031q.031-.781.281-.781a7.268,7.268,0,0,0,1.875-.312q1.125-.312,1.313-.812a4.109,4.109,0,0,0,.125-1,9.9,9.9,0,0,0-.219-1.906q-.219-1.094-.406-1.719l-.25-.687-2.562-7.062a.5.5,0,0,0-.375-.25q-2.437-.187-4.75-.187-3.25,0-7.937.313l-.312.188L11.25-8.187a16.437,16.437,0,0,0-1.062,4.313,1.462,1.462,0,0,0,.5,1.25,4.714,4.714,0,0,0,1.813.719,9.4,9.4,0,0,0,1.813.281q.188,0,.219.75A2.842,2.842,0,0,1,14.438.188Q8.187-.125,8-.125q-1.25,0-2.187.063T3.719.063Q2.562.125,1.5.188A1.331,1.331,0,0,1,1.25-.75q0-.875.25-.875a7.972,7.972,0,0,0,1.938-.312,2.97,2.97,0,0,0,1.625-.875A25,25,0,0,0,8-8.687L18.875-36.625q.125-.312.344-1t.344-1.031q.125-.344.375-.875a4.732,4.732,0,0,1,.438-.781q.188-.25.469-.562a1.558,1.558,0,0,1,.625-.437,2.277,2.277,0,0,1,.781-.125Zm-7.25,22.563q3.25.125,4.438.125,2.75,0,5.688-.187l.188-.312L20.813-32.875,15.438-18.937Q15.438-18.688,15.563-18.687ZM58.75-27.375a11.574,11.574,0,0,1,9.406,4.094,13.417,13.417,0,0,1,3.406,8.719A14.47,14.47,0,0,1,67.156-4.125Q62.75.375,57.438.375a23.1,23.1,0,0,1-4.406-.406q-2.094-.406-2.406-.406a3.9,3.9,0,0,0-1.406.344A5.4,5.4,0,0,1,48.25.25a2.674,2.674,0,0,1-.781-.187q-.531-.187-.531-.437,0-.062.188-1.031T47.5-4.25q.188-1.875.188-4.187V-34.312a20.379,20.379,0,0,0-.375-4q-.312-1-3.187-1h-.562q-.375,0-.375-.687,0-1,.375-1,1.875-.187,3.469-.5a19.6,19.6,0,0,0,2.5-.625q.906-.312,1.531-.594A9.6,9.6,0,0,0,52-43.187l.25-.187h.125a.67.67,0,0,1,.5.344,1.705,1.705,0,0,1,.313.656,17.267,17.267,0,0,0-.687,5.438V-26q0,.688.188.688a.48.48,0,0,0,.188-.062,12.37,12.37,0,0,1,2.688-1.312A9.172,9.172,0,0,1,58.75-27.375Zm-2,3.063a4.751,4.751,0,0,0-3,.969,3.309,3.309,0,0,0-1.25,2.781V-6a2.987,2.987,0,0,0,1.844,2.844,9.592,9.592,0,0,0,4.281.906,6.184,6.184,0,0,0,5.563-3.375,14.67,14.67,0,0,0,2-7.625,11.955,11.955,0,0,0-2.594-8A8.528,8.528,0,0,0,56.75-24.312Zm32.375-.562a6.327,6.327,0,0,0-5.406,3.031,12.714,12.714,0,0,0-2.094,7.406,14.535,14.535,0,0,0,2.656,8.781Q86.938-2,90.5-2a6.361,6.361,0,0,0,5.438-3.125,13.016,13.016,0,0,0,2.125-7.5,14.043,14.043,0,0,0-2.687-8.656Q92.688-24.875,89.125-24.875Zm.688-2.437a13.021,13.021,0,0,1,9.625,4.063,13.4,13.4,0,0,1,4,9.75,13.751,13.751,0,0,1-3.906,9.844A12.743,12.743,0,0,1,89.938.438,13.044,13.044,0,0,1,80.25-3.656a13.58,13.58,0,0,1-4-9.844,13.565,13.565,0,0,1,3.875-9.812A12.932,12.932,0,0,1,89.813-27.312Zm43.188,6v12.5a23.054,23.054,0,0,0,.438,4.75,1.117,1.117,0,0,0,.688.688,3.847,3.847,0,0,0,1.188.313q.625.063,1.25.063l.563.063q.188.063.188.688a1.905,1.905,0,0,1-.156.594q-.156.406-.344.406-.937.062-2.094.25t-2.156.438q-1,.25-1.875.5t-1.375.438L128.75.5q-.5,0-.5-1V-3.687L128.125-4Q124,.438,119.938.438a6.758,6.758,0,0,1-3.969-1.156,6.8,6.8,0,0,1-2.437-3.062,17.906,17.906,0,0,1-1.094-3.687,21.494,21.494,0,0,1-.312-3.719v-7.875a4.975,4.975,0,0,0-.875-3.375,3.19,3.19,0,0,0-1.531-1.031,5.276,5.276,0,0,0-1.5-.281q-.594,0-.594-.125,0-1.5.375-1.562a73.572,73.572,0,0,0,8.625-1.625.855.855,0,0,0,.188-.031l.125-.031q.25,0,.313.531a2.379,2.379,0,0,1,0,.781,40.089,40.089,0,0,0-.375,4.625v8.438q0,4.813,1.438,7.094A5.118,5.118,0,0,0,123-3.375a5.361,5.361,0,0,0,3.563-1.469q1.688-1.469,1.688-2.531V-19.062a4.975,4.975,0,0,0-.875-3.375,3.19,3.19,0,0,0-1.531-1.031,5.276,5.276,0,0,0-1.5-.281q-.594,0-.594-.125,0-1.5.375-1.562a73.572,73.572,0,0,0,8.625-1.625.855.855,0,0,0,.188-.031l.125-.031q.25,0,.313.531a2.379,2.379,0,0,1,0,.781A39.787,39.787,0,0,0,133-21.312Zm10.125-2.062H139.5q-.312,0-.312-1.312a.831.831,0,0,1,.063-.437,12.083,12.083,0,0,0,3.938-3.312,16.889,16.889,0,0,0,1.344-1.844q.656-1.031,1.094-1.781a5.8,5.8,0,0,0,.438-.812q1.875,0,1.875.313v6.188q1.625,0,4.938.031t3.5.031q.5,0,.5.563a5.321,5.321,0,0,1-.625,2.375h-8.312V-8.062a5.95,5.95,0,0,0,1.281,4,4.188,4.188,0,0,0,3.344,1.5,7.588,7.588,0,0,0,3.875-1.187q.188-.125.563.531t.313.719a10.214,10.214,0,0,1-2.875,1.969,8.843,8.843,0,0,1-4,.969,7.139,7.139,0,0,1-5.219-2.062A7.878,7.878,0,0,1,143.125-7.5Z" transform="translate(104 3323) rotate(90)"/>
    <path id="パス_12681" data-name="パス 12681" d="M11.125-41q1.25,0,2.438-.062t2.563-.156q1.375-.094,2.25-.156a3,3,0,0,1,.125.938q0,.875-.25.875a10.449,10.449,0,0,0-2.25.438q-1.625.438-1.75.875a24.166,24.166,0,0,0-.562,5.813V-5.312A22.015,22.015,0,0,1,9.281,8.375,13.514,13.514,0,0,1-1.937,14.188a5.129,5.129,0,0,1-1.5-.25,8.784,8.784,0,0,1-1.312-.5l-.437-.25a3.43,3.43,0,0,1-.75-2.312,2.7,2.7,0,0,1,1.156-2.25A4.378,4.378,0,0,1-2.062,7.75,3.939,3.939,0,0,1,.469,9.094a3.9,3.9,0,0,0,2.219,1.344,2.623,2.623,0,0,0,1.781-.875A9.9,9.9,0,0,0,6.25,7,17.51,17.51,0,0,0,7.688,2.219,39.567,39.567,0,0,0,8.25-4.812V-32.687a24.75,24.75,0,0,0-.437-5.562q-.187-.5-1.781-.906a10.718,10.718,0,0,0-2.406-.406q-.25,0-.25-.812a1.448,1.448,0,0,1,.25-1q.812.063,3.313.219T11.125-41Zm16.25,8.313a24.75,24.75,0,0,0-.437-5.562q-.187-.5-1.781-.906a10.718,10.718,0,0,0-2.406-.406q-.25,0-.25-.812a1.448,1.448,0,0,1,.25-1q7.188.312,7.5.313,1,0,7.25-.312a3,3,0,0,1,.125.938q0,.875-.25.875a10.449,10.449,0,0,0-2.25.438q-1.625.438-1.75.875a24.166,24.166,0,0,0-.562,5.813v23.75a24.166,24.166,0,0,0,.563,5.813q.125.438,1.75.844a11.171,11.171,0,0,0,2.25.406q.25,0,.25.938A2.77,2.77,0,0,1,37.5.188q-6.25-.313-7.25-.312-.313,0-7.5.313A1.331,1.331,0,0,1,22.5-.75q0-.875.25-.875A11.54,11.54,0,0,0,25.156-2q1.594-.375,1.781-.875a24.75,24.75,0,0,0,.438-5.562Zm47.063-.062A24.358,24.358,0,0,0,74-38.25q-.187-.5-2.156-.969a14.078,14.078,0,0,0-2.781-.469q-.25,0-.25-.719a1.388,1.388,0,0,1,.25-.969q.812.063,3.25.219T76.438-41q1.625,0,4.094-.187t2.906-.187a3,3,0,0,1,.125.938q0,.75-.25.75a15.63,15.63,0,0,0-2.719.5q-2.094.5-2.219.938a25.038,25.038,0,0,0-.5,5.813v23.75q0,3.875.188,8.75a1.836,1.836,0,0,1-1.187.25,2.7,2.7,0,0,1-2.062-1.437L50.563-35.5V-8.812A26.359,26.359,0,0,0,51-3q.125.438,2.094.906a14.547,14.547,0,0,0,2.594.469q.188,0,.219.75A2.842,2.842,0,0,1,55.813.188q-6.25-.313-7.187-.312L41.438.188A1.483,1.483,0,0,1,41.25-.75q0-.875.188-.875a14.045,14.045,0,0,0,2.844-.469q1.969-.469,2.156-1.031A18.633,18.633,0,0,0,47.063-9V-33.562a19.119,19.119,0,0,0-.437-4.687q-.187-.5-2.125-.906a15.557,15.557,0,0,0-2.812-.406q-.25,0-.25-.781a1.509,1.509,0,0,1,.25-1.031q4.875.125,6.375.125,3.25,0,5-.125,2.313,4.25,21.188,30.625a15,15,0,0,0,.188-2.562Zm14.25,19.625q0-3.187.75-3.187H89.5l15.063-.75h.063q.375,0,.375.563a9.126,9.126,0,0,1-.219,2.219,2.707,2.707,0,0,1-.406,1.031l-.187.125-15.062.688H89q-.062,0-.187-.187A.889.889,0,0,1,88.688-13.125ZM131.313-41.25l12.5,33q1.125,2.938,1.813,4.5a3.1,3.1,0,0,0,1.938,1.531,7.4,7.4,0,0,0,2.313.594q.25,0,.25,1.188A2.057,2.057,0,0,1,150,.188q-6.25-.313-6.875-.312-.063,0-7.25.313a1.426,1.426,0,0,1-.219-1.031q.031-.781.281-.781a7.268,7.268,0,0,0,1.875-.312q1.125-.312,1.313-.812a4.11,4.11,0,0,0,.125-1,9.9,9.9,0,0,0-.219-1.906q-.219-1.094-.406-1.719l-.25-.687-2.562-7.062a.5.5,0,0,0-.375-.25q-2.437-.187-4.75-.187-3.25,0-7.937.313l-.312.188L119.75-8.187a16.437,16.437,0,0,0-1.062,4.313,1.462,1.462,0,0,0,.5,1.25A4.714,4.714,0,0,0,121-1.906a9.4,9.4,0,0,0,1.813.281q.188,0,.219.75a2.842,2.842,0,0,1-.094,1.063q-6.25-.313-6.437-.312-1.25,0-2.187.063t-2.094.125Q111.062.125,110,.188a1.331,1.331,0,0,1-.25-.937q0-.875.25-.875a7.972,7.972,0,0,0,1.938-.312,2.97,2.97,0,0,0,1.625-.875A25,25,0,0,0,116.5-8.687l10.875-27.937q.125-.312.344-1t.344-1.031q.125-.344.375-.875a4.733,4.733,0,0,1,.438-.781q.188-.25.469-.562a1.558,1.558,0,0,1,.625-.437,2.277,2.277,0,0,1,.781-.125Zm-7.25,22.563q3.25.125,4.438.125,2.75,0,5.688-.187l.188-.312-5.062-13.812-5.375,13.938Q123.938-18.688,124.063-18.687Zm34.438-14a24.75,24.75,0,0,0-.437-5.562q-.187-.5-1.781-.906a10.718,10.718,0,0,0-2.406-.406q-.25,0-.25-.812a1.448,1.448,0,0,1,.25-1q7.188.312,7.5.313,1,0,7.25-.312a3,3,0,0,1,.125.938q0,.875-.25.875a10.449,10.449,0,0,0-2.25.438q-1.625.438-1.75.875a24.166,24.166,0,0,0-.562,5.813v23.75a24.166,24.166,0,0,0,.563,5.813q.125.438,1.75.844a11.171,11.171,0,0,0,2.25.406q.25,0,.25.938a2.77,2.77,0,0,1-.125.875q-6.25-.313-7.25-.312-.312,0-7.5.313a1.331,1.331,0,0,1-.25-.937q0-.875.25-.875A11.54,11.54,0,0,0,156.281-2q1.594-.375,1.781-.875a24.75,24.75,0,0,0,.438-5.562Z" transform="translate(39 3381) rotate(90)"/>
    <g id="グループ_9572" data-name="グループ 9572" transform="translate(-343.5 -115)">
      <path id="パス_12679" data-name="パス 12679" d="M3.22-6.748c.392-.168.448-.238.448-.35,0-.14-.126-.21-.784-.322A18.141,18.141,0,0,0,4.4-10.7c.42-.056.574-.14.574-.28s-.28-.266-1.414-.6a9.648,9.648,0,0,1-.448,1.834A14.854,14.854,0,0,1,.406-4.8c-.056.07.1.21.154.154A11.17,11.17,0,0,0,2.38-6.636c-.014.784-.014,1.54-.014,2.324C2.31-.574,2.282.35,2.282.6s.084.35.378.35c.378,0,.56-.14.56-.42ZM4.844-8.372a4.507,4.507,0,0,1,.966-.084H12.4c.14,0,.182-.056.182-.14S12.544-8.75,12.222-9c-.672-.546-.742-.588-.812-.588s-.154.042-.784.784H5.81A5.073,5.073,0,0,1,4.7-8.9ZM4.13-.518a5.473,5.473,0,0,1,1.064-.1h7.854c.126,0,.182-.042.182-.126s-.042-.168-.364-.434c-.714-.588-.8-.63-.868-.63s-.154.042-.812.84H5.18a5.849,5.849,0,0,1-1.19-.1ZM20.062-3.724c.084-.14.182-.28.266-.42.392-.084.518-.126.518-.238,0-.14-.168-.224-1.134-.448a4.74,4.74,0,0,1-.5,1.05A10.655,10.655,0,0,1,15.75-.448c-.07.042.014.2.1.168a9.255,9.255,0,0,0,3.794-2.856A8.393,8.393,0,0,0,21.35-1.26,15.049,15.049,0,0,1,15.624.9c-.084.014-.056.21.028.2a13.938,13.938,0,0,0,6.3-1.9,10.764,10.764,0,0,0,.966.546A12.718,12.718,0,0,0,26.208.84a7.725,7.725,0,0,0,.882.126c.14,0,.224-.084.28-.238.154-.434.308-.56.672-.63.07-.014.084-.14.014-.14a15.22,15.22,0,0,1-4.69-.77A8.113,8.113,0,0,1,22.5-1.19a11,11,0,0,0,1.988-1.89c.42-.07.532-.14.532-.266,0-.084-.028-.154-.238-.35-.518-.434-.588-.476-.658-.476s-.126.042-.532.448Zm3.542.35A8.826,8.826,0,0,1,21.8-1.568a8.074,8.074,0,0,1-1.974-1.806ZM22.008-8.4a.55.55,0,0,0,.336-.56c0-.448-.546-.924-1.246-1.218-.07-.028-.154.042-.112.1a2.448,2.448,0,0,1,.574,1.316c.028.224.1.322.238.364h-2.59a.519.519,0,0,0,.336-.546c0-.448-.56-.882-1.232-1.106-.056-.028-.14.042-.1.1A2.109,2.109,0,0,1,18.76-8.82c.042.252.112.378.238.42H17.052c-.014-.182-.028-.364-.056-.56-.014-.084-.154-.1-.168-.014A1.9,1.9,0,0,1,15.89-7.35a.5.5,0,0,0-.308.462.478.478,0,0,0,.49.49c.518,0,.91-.7.966-1.652h9.408a7.6,7.6,0,0,1-.378.98c-.028.07.07.126.126.084.35-.266.546-.42.784-.616.14-.126.252-.126.518-.112.364.014.518-.056.518-.21,0-.084-.042-.182-.336-.448-.546-.49-.644-.546-.728-.546s-.14.028-.546.518h-2a10.409,10.409,0,0,0,1.2-1.246c.448-.014.56-.084.56-.224s-.378-.336-1.162-.616a2.539,2.539,0,0,1-.168.532A8.832,8.832,0,0,1,24.01-8.4Zm3.178,1.428a3.55,3.55,0,0,1,1.008,1.666c.112.392.224.49.448.49.252,0,.448-.266.448-.616,0-.616-.742-1.316-1.806-1.666C25.2-7.126,25.13-7.028,25.186-6.972ZM21.112-7.6a2.576,2.576,0,0,1,.882,1.148c.1.28.154.378.392.378s.392-.21.392-.518c0-.476-.644-.952-1.6-1.134C21.112-7.742,21.056-7.644,21.112-7.6Zm-3.192.518A1.835,1.835,0,0,1,16.9-5.614c-.252.126-.378.266-.378.49A.491.491,0,0,0,17-4.648c.644,0,1.134-.91,1.134-1.96A4.307,4.307,0,0,0,18.1-7.07C18.088-7.154,17.934-7.168,17.92-7.084Zm2.114.042c.392-.126.448-.2.448-.322s-.084-.2-1.246-.35a6.431,6.431,0,0,1,.056,1.008c0,.448-.014.588-.014.8,0,.812.378.98,2.506.98a9.484,9.484,0,0,0,2.478-.2c.322-.084.56-.266.56-.49a.276.276,0,0,0-.2-.294c-.182-.042-.224-.084-.224-.266,0-.112.028-.518.056-.756.014-.07-.112-.112-.14-.042a2.247,2.247,0,0,1-.6,1.148c-.252.2-.63.238-2.044.238-1.484,0-1.638-.07-1.638-.5Zm-3.08-3.08c.476.028.924.042,1.4.042a32.463,32.463,0,0,0,7.392-.868c.5.182.7.154.7.014s-.35-.49-.98-.91a6.516,6.516,0,0,1-1.4.518,35.659,35.659,0,0,1-7.126,1.008C16.856-10.318,16.87-10.122,16.954-10.122ZM38.122-8.176A11.449,11.449,0,0,0,37.1-7.056a.334.334,0,0,0-.084.2c0,.07.084.112.154.112s.112-.042.182-.112A5.278,5.278,0,0,1,38.64-7.882a1.781,1.781,0,0,1,.868-.224c.392,0,.742.042.98.042.294,0,.434-.112.434-.378,0-.308-.224-.532-1.12-.532a7.447,7.447,0,0,0-3.934,1.022c-.112.07-.168.14-.168.238a.137.137,0,0,0,.154.14.472.472,0,0,0,.168-.056,7.674,7.674,0,0,1,2.058-.644C38.178-8.288,38.192-8.246,38.122-8.176ZM35.9-4.984c-.07,0-.112.028-.154.112a3.243,3.243,0,0,0-.266,1.218,2.078,2.078,0,0,0,.784,1.736A5.434,5.434,0,0,0,39.4-1.19a9.339,9.339,0,0,0,1.988-.182c.28-.084.364-.21.364-.406,0-.322-.378-.462-.84-.462a2.268,2.268,0,0,0-.56.07A7.153,7.153,0,0,1,38.71-2a3.949,3.949,0,0,1-2.142-.476A1.62,1.62,0,0,1,35.9-3.892a4.029,4.029,0,0,1,.112-.91C36.022-4.9,36.008-4.984,35.9-4.984Zm-1.946-.21c-.35.924-.658,1.82-.966,2.7-.028.07-.07.112-.126.112s-.084-.056-.112-.2a6.185,6.185,0,0,1-.084-1.092,11.916,11.916,0,0,1,.714-3.752,1.424,1.424,0,0,1,.266-.476.838.838,0,0,0,.2-.532,1.469,1.469,0,0,0-.35-.924c-.224-.294-.644-.742-.966-.742a.135.135,0,0,0-.126.126.313.313,0,0,0,.112.21,1.2,1.2,0,0,1,.434.9,4.983,4.983,0,0,1-.2.98A17.807,17.807,0,0,0,32.074-3.7a7.8,7.8,0,0,0,.49,2.772c.168.392.336.5.546.5s.308-.126.308-.364c0-.2-.042-.49-.042-.8a4.977,4.977,0,0,1,.182-.966c.154-.644.406-1.568.7-2.548a.616.616,0,0,0,.028-.14.141.141,0,0,0-.154-.126C34.048-5.362,33.992-5.32,33.95-5.194ZM53.242-8.61A7.407,7.407,0,0,0,50.33-7.9a29.239,29.239,0,0,0-2.646,1.33,1.59,1.59,0,0,1-.756.266,1.14,1.14,0,0,1-.812-.448.242.242,0,0,0-.168-.084c-.07,0-.126.07-.126.308a1.488,1.488,0,0,0,.476.784,1.645,1.645,0,0,0,.924.518.56.56,0,0,0,.49-.238,3.443,3.443,0,0,1,.616-.532,18.835,18.835,0,0,1,2.17-1.33,6.152,6.152,0,0,1,2.73-.784,2.475,2.475,0,0,1,2.688,2.324A3.424,3.424,0,0,1,54.04-2.828a10.819,10.819,0,0,1-4.186,1.4c-.2.028-.252.1-.252.2,0,.154.1.224.252.21a12.02,12.02,0,0,0,4.816-1.3A3.6,3.6,0,0,0,56.854-5.53C56.854-7.14,55.482-8.61,53.242-8.61Zm15.26.966a.27.27,0,0,0,.14.21A4.513,4.513,0,0,1,70.84-4.3a.222.222,0,0,1-.21.252c-.392.056-.686.084-1.064.126q-.21.021-.21.126c0,.1.042.168.182.182.91.112,1.176.238,1.372.518a.423.423,0,0,0,.364.182c.35,0,.532-.392.532-.924A4.619,4.619,0,0,0,68.8-7.714C68.642-7.784,68.5-7.728,68.5-7.644ZM64.162-.91a.365.365,0,0,0,.406-.364,1.091,1.091,0,0,0-.084-.434.868.868,0,0,1-.056-.322,1.8,1.8,0,0,1,.14-.518,15.891,15.891,0,0,1,1.106-2.38.669.669,0,0,0,.084-.252.153.153,0,0,0-.154-.14.264.264,0,0,0-.238.154C64.722-4.144,64.274-3.4,63.84-2.618c-.084.154-.168.224-.28.224-.182,0-.448-.252-.686-.756A5.442,5.442,0,0,1,62.5-5.544,6.53,6.53,0,0,1,62.65-7.2a1.78,1.78,0,0,0,.126-.6,1.471,1.471,0,0,0-.658-1.022,1.654,1.654,0,0,0-.84-.448c-.112,0-.2.042-.2.126,0,.042.042.1.126.182a1.549,1.549,0,0,1,.616,1.344c0,.35-.014.756-.014,1.148,0,2.1.238,3.822,1.414,5A1.746,1.746,0,0,0,64.162-.91ZM82.32-8.442A5.042,5.042,0,0,0,79.674-4.13a3.319,3.319,0,0,0,1.218,2.674,5.986,5.986,0,0,0,3.5,1.162c.434,0,.644-.154.644-.364a.519.519,0,0,0-.336-.5A2.663,2.663,0,0,0,83.636-1.4,4.108,4.108,0,0,1,81.2-2.268a2.781,2.781,0,0,1-.952-2.268A4.419,4.419,0,0,1,83.076-8.3a8.263,8.263,0,0,1,2.716-.462c.294-.014.462-.182.462-.378a.489.489,0,0,0-.378-.42,2.064,2.064,0,0,0-.8-.182.856.856,0,0,0-.462.14,2.9,2.9,0,0,1-.658.224c-2.156.546-4.242,1.092-6.076,1.554a5.178,5.178,0,0,1-.9.154,1.1,1.1,0,0,1-.938-.49c-.084-.084-.126-.126-.182-.126-.084,0-.14.084-.14.266a1.568,1.568,0,0,0,.378.8,1.347,1.347,0,0,0,.924.574A.721.721,0,0,0,77.5-6.8,7.06,7.06,0,0,1,78.54-7.28c1.134-.406,2.478-.826,3.752-1.2Z" transform="translate(581.106 3464)"/>
      <line id="線_769" data-name="線 769" x1="60" transform="translate(511.5 3459.5)" fill="none" stroke="#333" stroke-width="1"/>
    </g>
  </g>
</svg>
