<svg xmlns="http://www.w3.org/2000/svg" width="642.426" height="68.848" viewBox="0 0 642.426 68.848">
  <g id="sec_sl_ttl" transform="translate(-664 -3170.882)">
    <path id="sec_sl_ttl-2" data-name="sec_sl_ttl" d="M5.957-47.852a15.409,15.409,0,0,1,5.762-12.354A20.192,20.192,0,0,1,25.1-65.039a31.907,31.907,0,0,1,4.053.244,30.351,30.351,0,0,1,3.125.537q1.221.293,3.516.928T39.844-62.3A65.949,65.949,0,0,1,41.016-48.34q0,.684-.977.684-2.344,0-2.539-.977a15.044,15.044,0,0,0-4.15-8.35,11.593,11.593,0,0,0-8.936-4.053q-5.859,0-8.252,2.93a11.052,11.052,0,0,0-2.393,7.227,9.51,9.51,0,0,0,.684,3.564,19.307,19.307,0,0,0,1.367,2.832,11.115,11.115,0,0,0,2.49,2.588q1.807,1.465,2.637,2.051t3.32,2.148q2.49,1.563,3.174,1.953.488.293,3.418,2.1t4,2.539q1.074.732,3.369,2.637a18.552,18.552,0,0,1,3.32,3.369,19.941,19.941,0,0,1,1.953,3.662,11.564,11.564,0,0,1,.928,4.541,15.909,15.909,0,0,1-6.1,12.842A21.811,21.811,0,0,1,24.023.977a38.828,38.828,0,0,1-4.98-.342Q16.406.293,14.648-.049t-4.443-.977q-2.686-.635-3.76-.83Q4-13.867,4-17.383q0-.586,1.563-.586a2.928,2.928,0,0,1,2.441.879Q11.328-3.027,24.219-3.027a12.321,12.321,0,0,0,8.3-2.93q3.418-2.93,3.418-8.3a10.785,10.785,0,0,0-.586-3.613,15.737,15.737,0,0,0-1.221-2.734A8.6,8.6,0,0,0,31.885-22.9q-1.611-1.221-2.49-1.807t-3.223-1.855q-2.344-1.27-3.223-1.758-2.832-1.66-3.955-2.344t-3.711-2.393a19.642,19.642,0,0,1-3.76-3.027Q10.352-37.4,8.789-39.307a11.512,11.512,0,0,1-2.2-4.053A15.772,15.772,0,0,1,5.957-47.852Zm64.551,5.273q10.742,0,14.844,4.98,0,6.543-3.613,6.543a3.871,3.871,0,0,1-2.539-.732,14.576,14.576,0,0,1-2.246-2.686q-3.027-4.492-7.227-4.492-4,0-7.275,3.809T59.18-23.828q0,7.813,3.857,12.988A12.589,12.589,0,0,0,73.73-5.664a18.925,18.925,0,0,0,3.906-.391,18.708,18.708,0,0,0,3.174-.928,18.32,18.32,0,0,0,2.246-1.074q.928-.537,1.611-1.025l.684-.488q.586,0,.586,1.27a3.5,3.5,0,0,1-.586,1.758A17.929,17.929,0,0,1,79.59-1.611a16.322,16.322,0,0,1-8.3,2.2,18.543,18.543,0,0,1-13.916-6.1A20.794,20.794,0,0,1,51.563-20.41a25.444,25.444,0,0,1,4.883-15.576Q61.328-42.578,70.508-42.578Zm47.461-.2q6.543,0,9.375,4.688t2.832,14.453v10.547a36.321,36.321,0,0,0,.781,8.594q.2.684,2.539,1.318a14.9,14.9,0,0,0,3.32.635q.293,0,.391,1.172a4.036,4.036,0,0,1-.1,1.66Q127.344-.2,126.66-.2q-.293,0-10.254.488a2.357,2.357,0,0,1-.391-1.611q0-1.221.391-1.221a12.2,12.2,0,0,0,3.271-.635q2.1-.635,2.295-1.318a29.528,29.528,0,0,0,.684-6.836V-21.68q0-8.984-2.49-12.061T112.5-36.816a9.3,9.3,0,0,0-5.811,2.295q-2.881,2.295-2.881,4.053v17.285a36.87,36.87,0,0,0,.781,8.691q.2.684,2.539,1.318a14.9,14.9,0,0,0,3.32.635q.293,0,.391,1.172a4.036,4.036,0,0,1-.1,1.66Q100.977-.2,100.293-.2q-.586,0-10.645.488a2.357,2.357,0,0,1-.391-1.611q0-1.221.391-1.221a14.329,14.329,0,0,0,3.467-.635q2.295-.635,2.49-1.318a29.028,29.028,0,0,0,.684-6.738V-53.613a31.842,31.842,0,0,0-.586-6.25q-.488-1.563-4.98-1.562h-.879q-.586,0-.586-1.074,0-1.563.586-1.562,2.93-.293,5.42-.781a30.626,30.626,0,0,0,3.906-.977q1.416-.488,2.393-.928a7.88,7.88,0,0,0,1.367-.732l.488-.293h.2a1.047,1.047,0,0,1,.781.537,2.664,2.664,0,0,1,.488,1.025,26.98,26.98,0,0,0-1.074,8.5v21.387q0,.391.2.391.1,0,.293-.2a23.354,23.354,0,0,1,6.1-4.492A15.877,15.877,0,0,1,117.969-42.773Zm45.02,3.906a9.887,9.887,0,0,0-8.447,4.736,19.866,19.866,0,0,0-3.271,11.572,22.711,22.711,0,0,0,4.15,13.721q4.15,5.713,9.717,5.713,5.176,0,8.5-4.883a20.338,20.338,0,0,0,3.32-11.719,21.943,21.943,0,0,0-4.2-13.525Q168.555-38.867,162.988-38.867Zm1.074-3.809A20.346,20.346,0,0,1,179.1-36.328a20.94,20.94,0,0,1,6.25,15.234,21.486,21.486,0,0,1-6.1,15.381,19.911,19.911,0,0,1-14.99,6.4,20.381,20.381,0,0,1-15.137-6.4,21.219,21.219,0,0,1-6.25-15.381,21.2,21.2,0,0,1,6.055-15.332A20.207,20.207,0,0,1,164.063-42.676Zm48.73,3.809a9.887,9.887,0,0,0-8.447,4.736,19.866,19.866,0,0,0-3.271,11.572,22.711,22.711,0,0,0,4.15,13.721q4.15,5.713,9.717,5.713,5.176,0,8.5-4.883a20.338,20.338,0,0,0,3.32-11.719,21.943,21.943,0,0,0-4.2-13.525Q218.359-38.867,212.793-38.867Zm1.074-3.809a20.346,20.346,0,0,1,15.039,6.348,20.94,20.94,0,0,1,6.25,15.234,21.486,21.486,0,0,1-6.1,15.381,19.911,19.911,0,0,1-14.99,6.4,20.381,20.381,0,0,1-15.137-6.4,21.219,21.219,0,0,1-6.25-15.381,21.2,21.2,0,0,1,6.055-15.332A20.207,20.207,0,0,1,213.867-42.676Zm33.5,31.348V-53.613a31.842,31.842,0,0,0-.586-6.25q-.488-1.563-4.98-1.562h-.879q-.586,0-.586-1.074,0-1.563.586-1.562,2.93-.293,5.42-.781a30.626,30.626,0,0,0,3.906-.977q1.416-.488,2.393-.928a15,15,0,0,0,1.465-.732l.391-.293h.2a1.047,1.047,0,0,1,.781.537,2.664,2.664,0,0,1,.488,1.025,26.98,26.98,0,0,0-1.074,8.5v44.531a36.871,36.871,0,0,0,.781,8.691q.2.684,2.539,1.318a14.9,14.9,0,0,0,3.32.635q.293,0,.391,1.172a4.036,4.036,0,0,1-.1,1.66Q252.051-.2,251.367-.2q-.586,0-10.645.488a2.357,2.357,0,0,1-.391-1.611q0-1.221.391-1.221a14.329,14.329,0,0,0,3.467-.635q2.295-.635,2.49-1.318A29.528,29.528,0,0,0,247.363-11.328Zm54.1-52.734q1.953,0,3.809-.1t4-.244q2.148-.146,3.516-.244a4.692,4.692,0,0,1,.2,1.465q0,1.367-.391,1.367a16.327,16.327,0,0,0-3.516.684q-2.539.684-2.734,1.367a37.76,37.76,0,0,0-.879,9.082v36.816a35.235,35.235,0,0,0,.879,8.594q.293.977,6.641.977h4.688q9.082,0,12.3-1.66a10.564,10.564,0,0,0,3.271-3.467,22.689,22.689,0,0,0,2.881-6.4q.2-.586,1.367-.586a3.584,3.584,0,0,1,2.441.586q-.488,1.27-1.514,4.053t-1.611,4.492q-.586,1.709-1.27,3.955a24.361,24.361,0,0,0-.879,3.711Q329.59.391,318.8.1T301.367-.2L289.551.1a2.55,2.55,0,0,1-.293-1.562q0-1.27.293-1.27a17.512,17.512,0,0,0,3.809-.586q2.441-.586,2.93-1.465.684-1.172.684-9.18V-50.879a39.918,39.918,0,0,0-.684-8.887q-.293-.781-2.783-1.416a16.747,16.747,0,0,0-3.76-.635q-.391,0-.391-1.27a2.262,2.262,0,0,1,.391-1.562q1.27.1,5.176.342T301.465-64.062Zm49.414,9.668a4.971,4.971,0,0,1-1.367-3.516,4.715,4.715,0,0,1,1.416-3.467,4.715,4.715,0,0,1,3.467-1.416,4.715,4.715,0,0,1,3.467,1.416,4.715,4.715,0,0,1,1.416,3.467,4.715,4.715,0,0,1-1.416,3.467,4.715,4.715,0,0,1-3.467,1.416A4.971,4.971,0,0,1,350.879-54.395Zm8.008,41.211a36.87,36.87,0,0,0,.781,8.691q.2.684,2.539,1.318a14.9,14.9,0,0,0,3.32.635q.293,0,.391,1.172a4.036,4.036,0,0,1-.1,1.66Q356.055-.2,355.371-.2T344.727.293a2.357,2.357,0,0,1-.391-1.611q0-1.221.391-1.221a14.329,14.329,0,0,0,3.467-.635q2.295-.635,2.49-1.318a29.529,29.529,0,0,0,.684-6.836V-29.785q0-3.809-1.367-5.273a4.984,4.984,0,0,0-2.393-1.611,8.244,8.244,0,0,0-2.344-.439q-.928,0-.928-.2,0-2.344.586-2.441A114.957,114.957,0,0,0,358.4-42.285l.2-.1h.293q.391,0,.488.83a3.718,3.718,0,0,1,0,1.221,57.227,57.227,0,0,0-.488,7.031Zm37.6-54.687q7.031,0,9.277,3.809,0,6.152-3.516,6.152a3.208,3.208,0,0,1-2.441-1.514,36.984,36.984,0,0,0-2.686-3.076,4.911,4.911,0,0,0-3.662-1.562q-4.3,0-6.641,5.273a30.329,30.329,0,0,0-2.344,12.4v4.98a.432.432,0,0,0,.488.488H395.8q.488,0,.488.684a9.213,9.213,0,0,1-1.172,3.906H385.059a.518.518,0,0,0-.586.586v22.559a35.73,35.73,0,0,0,.879,8.691q.2.684,2.393,1.318a13.226,13.226,0,0,0,3.076.635q.293,0,.391,1.172a4.036,4.036,0,0,1-.1,1.66Q381.348-.2,380.664-.2q-.293,0-10.254.488a1.778,1.778,0,0,1-.293-.928,4.461,4.461,0,0,1,0-1.318q.1-.586.293-.586a12.71,12.71,0,0,0,3.32-.635q2.148-.635,2.344-1.318a35.109,35.109,0,0,0,.977-8.691V-35.645q0-.684-.488-.684h-5.176q-.293,0-.293-.586,0-.879,1.563-2.441a4.667,4.667,0,0,1,3.32-1.562h.586q.488,0,.488-.586v-1.27a26.949,26.949,0,0,1,6.1-17.676Q389.258-67.871,396.484-67.871Zm22.363,28.906a8.6,8.6,0,0,0-7.764,4.346q-2.686,4.346-2.686,7.178,0,.684.586.684h19.043q.488,0,.488-.977,0-3.125-2.637-7.178A8.046,8.046,0,0,0,418.848-38.965Zm.977-3.613a17.466,17.466,0,0,1,7.91,1.709,13.257,13.257,0,0,1,5.225,4.395,20.087,20.087,0,0,1,2.637,5.469,19.231,19.231,0,0,1,.83,5.518q0,1.953-.586,2.393a4.011,4.011,0,0,1-2.246.439H408.984q-.781,0-.781.488a19.025,19.025,0,0,0,3.711,11.328q3.711,5.176,10.742,5.176a18.924,18.924,0,0,0,3.906-.391,18.708,18.708,0,0,0,3.174-.928,18.32,18.32,0,0,0,2.246-1.074q.928-.537,1.611-1.025l.684-.488q.586,0,.586,1.27a3.5,3.5,0,0,1-.586,1.758,17.929,17.929,0,0,1-5.762,4.932,16.322,16.322,0,0,1-8.3,2.2,18.543,18.543,0,0,1-13.916-6.1,20.794,20.794,0,0,1-5.811-14.893q0-10.254,5.518-16.211A18.048,18.048,0,0,1,419.824-42.578Z" transform="translate(870 3238.753)"/>
    <g id="グループ_9431" data-name="グループ 9431" transform="translate(152.5 -240.247)">
      <line id="線_769" data-name="線 769" x1="90" transform="translate(595.922 3457.5)" fill="none" stroke="#333" stroke-width="1"/>
      <path id="パス_12682" data-name="パス 12682" d="M2.358-4.914a7.166,7.166,0,0,1-1.35-.108l.18.666a5.5,5.5,0,0,1,1.188-.108h6.03V-.4c0,.234-.108.324-.342.324-.486,0-1.134-.054-2.448-.18-.108-.018-.108.216,0,.234C7.272.324,7.578.558,7.65,1.008c.054.288.108.342.324.342a1.7,1.7,0,0,0,1.008-.342A1.257,1.257,0,0,0,9.558-.108c0-.5-.036-.936-.054-3.15V-4.464h7.2c.18,0,.252-.072.252-.162,0-.108-.036-.2-.432-.522-.828-.666-.936-.738-1.044-.738s-.18.072-.972.972h-5v-.7c.468-.18.54-.288.54-.432a.152.152,0,0,0-.036-.126,14.877,14.877,0,0,0,2.808-1.908c.594-.072.756-.126.756-.306,0-.09-.036-.2-.306-.45-.612-.54-.684-.594-.792-.594-.09,0-.2.054-.738.558H5.742A7.9,7.9,0,0,1,4.266-9l.2.7a5.093,5.093,0,0,1,1.314-.126h5.9A12.7,12.7,0,0,1,9.594-6.336c-.252-.054-.648-.108-1.26-.2a9.374,9.374,0,0,1,.072,1.62Zm.828-6.318a5.926,5.926,0,0,0-.072-.756.112.112,0,0,0-.216,0A2.613,2.613,0,0,1,1.638-9.7c-.414.234-.54.468-.54.72a.623.623,0,0,0,.648.648c.738,0,1.4-.918,1.44-2.448H15.012a9.561,9.561,0,0,1-.666,1.764c-.054.09.072.2.162.126a9.028,9.028,0,0,0,1.314-1.242c.126-.144.2-.2.5-.2.432,0,.594-.09.594-.306,0-.108-.054-.234-.4-.558-.648-.612-.738-.666-.846-.666s-.18.054-.738.63h-2.9a15.433,15.433,0,0,0,2.07-2.286c.594,0,.72-.108.72-.288,0-.162-.234-.342-1.53-.918a8.27,8.27,0,0,1-.54,1.368,17.917,17.917,0,0,1-1.242,2.124ZM7.7-14.688a5.26,5.26,0,0,1,1.044,2.16c.108.558.234.7.558.7.36,0,.63-.288.63-.774,0-.774-.846-1.71-2.088-2.25C7.758-14.9,7.632-14.76,7.7-14.688Zm-3.69.342a5.056,5.056,0,0,1,1.008,1.962c.144.594.27.738.576.738a.654.654,0,0,0,.612-.7c0-.756-.846-1.674-2.07-2.16A.105.105,0,0,0,4.014-14.346ZM29.736-3.06c-.144.18-.306.36-.468.54A14.33,14.33,0,0,1,24.462.972c-.09.054,0,.27.108.234A12.664,12.664,0,0,0,29.9-1.872c.144-.144.288-.306.432-.45.09.108.18.2.27.306A12.547,12.547,0,0,0,34.614.846a2.192,2.192,0,0,0,.756.234c.126,0,.216-.072.27-.234.18-.486.306-.63.7-.738.09-.018.108-.162.018-.18a12.856,12.856,0,0,1-5.112-2.52,3.76,3.76,0,0,1-.4-.36,16.37,16.37,0,0,0,1.98-3.456c.54-.09.666-.162.666-.342s-.36-.4-1.548-.882a9.22,9.22,0,0,1-.5,1.656,12.679,12.679,0,0,1-1.26,2.322,9.747,9.747,0,0,1-1.764-2.952.963.963,0,0,1-.072-.324c0-.054.072-.2.072-.252a.147.147,0,0,0-.162-.144c-.216,0-.576.162-.576.27,0,.09.09.144.18.216a.676.676,0,0,1,.2.36A11.853,11.853,0,0,0,29.736-3.06ZM22.5-10.926H21.168a5.538,5.538,0,0,1-1.3-.126l.2.684a5.382,5.382,0,0,1,1.116-.108H22.41a23.977,23.977,0,0,1-2.79,7.47c-.054.09.126.234.2.144A16.013,16.013,0,0,0,22.59-7.7C22.5-1.422,22.428.45,22.428.918c0,.27.09.414.45.414.432,0,.684-.162.684-.5,0-.558-.018-2.754-.018-8.694V-9.072a3.31,3.31,0,0,1,.99,1.728c.072.342.2.468.4.468.288,0,.54-.234.54-.7,0-.594-.72-1.368-1.926-1.854v-1.044h2.322c.18,0,.252-.054.252-.18,0-.072-.036-.18-.252-.36-.666-.594-.756-.63-.846-.63s-.162.036-.666.72h-.81v-3.06c.522-.234.648-.342.648-.486,0-.216-.306-.342-1.8-.486a13.776,13.776,0,0,1,.108,2.232Zm7.326-.81H27.288a6.871,6.871,0,0,1-1.332-.108l.18.666a5.186,5.186,0,0,1,1.152-.108h8.694c.18,0,.252-.072.252-.18,0-.09-.072-.216-.4-.486-.72-.612-.864-.684-.972-.684-.09,0-.216.09-.918.9H30.906V-14c.522-.216.612-.324.612-.468,0-.2-.216-.306-1.782-.486a10.336,10.336,0,0,1,.09,1.62ZM31.68-10.17a7.62,7.62,0,0,1,2.466,2.736c.342.684.5.828.792.828.378,0,.54-.324.54-.756,0-.99-1.62-2.3-3.69-3.006A.117.117,0,0,0,31.68-10.17Zm-6.408,4.3A10.54,10.54,0,0,0,28.746-9.45c.576-.036.648-.126.648-.288,0-.2-.2-.306-1.458-.882a5.43,5.43,0,0,1-.324.954,11.286,11.286,0,0,1-2.484,3.6C25.038-5.994,25.182-5.814,25.272-5.868ZM46.566-.18H40.932a10.6,10.6,0,0,1-1.674-.108l.18.684A7.837,7.837,0,0,1,40.932.27H54.81c.18,0,.252-.054.252-.162,0-.09-.054-.2-.522-.576-.882-.72-.972-.774-1.08-.774S53.28-1.188,52.4-.18H47.7V-5.13h5.544c.18,0,.234-.072.234-.162,0-.108-.036-.2-.432-.522C52.2-6.516,52.11-6.57,52-6.57s-.18.054-.99.99H47.7V-9.774h6.066c.162,0,.234-.072.234-.162,0-.126-.054-.216-.468-.558-.846-.7-.954-.774-1.062-.774-.09,0-.18.072-1.008,1.044H47.7V-13.77c.558-.216.666-.342.666-.5,0-.216-.216-.342-1.908-.5a41.774,41.774,0,0,1,.108,4.194v.36H42.912a23.092,23.092,0,0,0,.9-2.16c.522-.126.7-.2.7-.36,0-.234-.288-.342-1.746-.792a10.905,10.905,0,0,1-.378,1.71,17.777,17.777,0,0,1-2.97,5.67c-.072.09.126.234.2.162a12.422,12.422,0,0,0,3.06-3.78h3.888V-5.58H43.02a9.129,9.129,0,0,1-1.53-.108l.18.666a7.124,7.124,0,0,1,1.368-.108h3.528ZM68.724-12.744a21.75,21.75,0,0,0,3.222-1.026c.648.2.846.072.846-.072,0-.162-.2-.378-1.188-1.152a5.462,5.462,0,0,1-1.368.828,30,30,0,0,1-6.858,1.944c-.108.018-.072.252.036.252a30.254,30.254,0,0,0,4.212-.522v3.4H64.3A7.423,7.423,0,0,1,62.91-9.2l.18.666A7.308,7.308,0,0,1,64.3-8.64h3.33v3.672H65.16a6.023,6.023,0,0,0-1.368-.666A21.958,21.958,0,0,1,63.9-2.682C63.9-.288,63.846.5,63.846.81s.144.378.468.378c.45,0,.684-.126.684-.486V.18h6.48V.72c0,.288.108.378.486.378.45,0,.684-.108.684-.468,0-.252-.072-1.26-.072-3.564v-1.26c.45-.288.486-.378.486-.486,0-.09-.036-.18-.306-.414-.522-.45-.612-.486-.72-.486-.09,0-.162.054-.7.612h-2.61V-8.64H74.2c.162,0,.234-.054.234-.162s-.054-.2-.4-.486c-.756-.666-.918-.81-1.026-.81s-.2.144-.918,1.008H68.724ZM71.478-.27H65V-4.518h6.48ZM59.364-14.238A4.247,4.247,0,0,1,61-12.384c.2.414.324.558.576.558a.642.642,0,0,0,.594-.7c0-.864-1.1-1.638-2.718-1.908C59.346-14.454,59.274-14.292,59.364-14.238ZM58.122-9.99A3.814,3.814,0,0,1,59.67-8.226c.162.414.342.558.576.558a.648.648,0,0,0,.594-.72c0-.774-1.1-1.566-2.628-1.8C58.1-10.206,58.032-10.044,58.122-9.99Zm4.554-.252c-1.1,2.628-1.908,4.464-2.736,6.1-.288.576-.576.648-.882.648a8.216,8.216,0,0,1-.918-.072c-.108-.018-.144.216-.036.252,1.152.306,1.494.558,1.494,1.584,0,.666-.126,1.458-.126,1.818,0,.63.27.954.63.954.5,0,.864-.342.864-1.1,0-.864-.468-1.692-.468-2.592a3.226,3.226,0,0,1,.2-.936c.792-2.16,1.368-3.942,2.2-6.57C62.928-10.26,62.712-10.35,62.676-10.242Z" transform="translate(510.492 3465)"/>
    </g>
  </g>
</svg>
