<svg xmlns="http://www.w3.org/2000/svg" width="431.561" height="349.719" viewBox="0 0 431.561 349.719">
  <g id="sec_about_ttl" transform="translate(-156.832 -2149.706)">
    <path id="パス_12676" data-name="パス 12676" d="M35.645-64.453,55.176-12.891q1.758,4.59,2.832,7.031a4.841,4.841,0,0,0,3.027,2.393,11.559,11.559,0,0,0,3.613.928q.391,0,.391,1.855a3.213,3.213,0,0,1-.2.977Q55.078-.2,54.1-.2,54-.2,42.773.293a2.228,2.228,0,0,1-.342-1.611q.049-1.221.439-1.221a11.356,11.356,0,0,0,2.93-.488q1.758-.488,2.051-1.27a6.421,6.421,0,0,0,.2-1.562,15.465,15.465,0,0,0-.342-2.979q-.342-1.709-.635-2.686L46.68-12.6l-4-11.035a.787.787,0,0,0-.586-.391q-3.809-.293-7.422-.293-5.078,0-12.4.488l-.488.293-4.2,10.742a25.682,25.682,0,0,0-1.66,6.738A2.285,2.285,0,0,0,16.7-4.1a7.366,7.366,0,0,0,2.832,1.123,14.682,14.682,0,0,0,2.832.439q.293,0,.342,1.172a4.441,4.441,0,0,1-.146,1.66Q12.793-.2,12.5-.2q-1.953,0-3.418.1T5.811.1Q4,.2,2.344.293a2.079,2.079,0,0,1-.391-1.465q0-1.367.391-1.367a12.456,12.456,0,0,0,3.027-.488A4.64,4.64,0,0,0,7.91-4.395a39.058,39.058,0,0,0,4.59-9.18L29.492-57.227q.2-.488.537-1.562t.537-1.611q.2-.537.586-1.367a7.394,7.394,0,0,1,.684-1.221q.293-.391.732-.879a2.434,2.434,0,0,1,.977-.684,3.557,3.557,0,0,1,1.221-.2ZM24.316-29.2q5.078.2,6.934.2,4.3,0,8.887-.293l.293-.488L32.52-51.367l-8.4,21.777Q24.121-29.2,24.316-29.2ZM91.8-42.773q9.375,0,14.7,6.4a20.963,20.963,0,0,1,5.322,13.623,22.609,22.609,0,0,1-6.885,16.309Q98.047.586,89.746.586a36.093,36.093,0,0,1-6.885-.635Q79.59-.684,79.1-.684a6.091,6.091,0,0,0-2.2.537,8.429,8.429,0,0,1-1.514.537A4.178,4.178,0,0,1,74.17.1q-.83-.293-.83-.684,0-.1.293-1.611t.586-4.443q.293-2.93.293-6.543v-40.43a31.842,31.842,0,0,0-.586-6.25q-.488-1.563-4.98-1.562h-.879q-.586,0-.586-1.074,0-1.563.586-1.562,2.93-.293,5.42-.781a30.626,30.626,0,0,0,3.906-.977q1.416-.488,2.393-.928a15,15,0,0,0,1.465-.732l.391-.293h.2a1.047,1.047,0,0,1,.781.537,2.664,2.664,0,0,1,.488,1.025,26.98,26.98,0,0,0-1.074,8.5v17.09q0,1.074.293,1.074a.75.75,0,0,0,.293-.1,19.329,19.329,0,0,1,4.2-2.051A14.332,14.332,0,0,1,91.8-42.773Zm-3.125,4.785a7.424,7.424,0,0,0-4.687,1.514,5.171,5.171,0,0,0-1.953,4.346V-9.375a4.667,4.667,0,0,0,2.881,4.443A14.988,14.988,0,0,0,91.6-3.516q5.566,0,8.691-5.273A22.923,22.923,0,0,0,103.418-20.7q0-7.715-4.053-12.5A13.324,13.324,0,0,0,88.672-37.988Zm50.586-.879a9.887,9.887,0,0,0-8.447,4.736,19.866,19.866,0,0,0-3.271,11.572,22.711,22.711,0,0,0,4.15,13.721q4.15,5.713,9.717,5.713,5.176,0,8.5-4.883a20.338,20.338,0,0,0,3.32-11.719,21.943,21.943,0,0,0-4.2-13.525Q144.824-38.867,139.258-38.867Zm1.074-3.809a20.346,20.346,0,0,1,15.039,6.348,20.94,20.94,0,0,1,6.25,15.234,21.486,21.486,0,0,1-6.1,15.381,19.911,19.911,0,0,1-14.99,6.4,20.381,20.381,0,0,1-15.137-6.4,21.219,21.219,0,0,1-6.25-15.381A21.2,21.2,0,0,1,125.2-36.426,20.207,20.207,0,0,1,140.332-42.676Zm67.48,9.375V-13.77a36.022,36.022,0,0,0,.684,7.422,1.745,1.745,0,0,0,1.074,1.074,6.011,6.011,0,0,0,1.855.488q.977.1,1.953.1l.879.1q.293.1.293,1.074a2.977,2.977,0,0,1-.244.928q-.244.635-.537.635-1.465.1-3.271.391t-3.369.684q-1.563.391-2.93.781t-2.148.684l-.879.2q-.781,0-.781-1.562v-4.98l-.2-.488Q193.75.684,187.4.684a10.559,10.559,0,0,1-6.2-1.807,10.617,10.617,0,0,1-3.809-4.785,27.978,27.978,0,0,1-1.709-5.762,33.585,33.585,0,0,1-.488-5.811v-12.3q0-3.809-1.367-5.273a4.984,4.984,0,0,0-2.393-1.611,8.244,8.244,0,0,0-2.344-.439q-.928,0-.928-.2,0-2.344.586-2.441a114.956,114.956,0,0,0,13.477-2.539,1.336,1.336,0,0,0,.293-.049l.2-.049q.391,0,.488.83a3.717,3.717,0,0,1,0,1.221,62.639,62.639,0,0,0-.586,7.227v13.184q0,7.52,2.246,11.084t7.324,3.564a8.376,8.376,0,0,0,5.566-2.295q2.637-2.295,2.637-3.955V-29.785q0-3.809-1.367-5.273a4.984,4.984,0,0,0-2.393-1.611,8.244,8.244,0,0,0-2.344-.439q-.928,0-.928-.2,0-2.344.586-2.441a114.956,114.956,0,0,0,13.477-2.539,1.336,1.336,0,0,0,.293-.049l.2-.049q.391,0,.488.83a3.717,3.717,0,0,1,0,1.221A62.168,62.168,0,0,0,207.813-33.3Zm15.82-3.223h-5.664q-.488,0-.488-2.051a1.3,1.3,0,0,1,.1-.684,18.88,18.88,0,0,0,6.152-5.176,26.389,26.389,0,0,0,2.1-2.881q1.025-1.611,1.709-2.783a9.065,9.065,0,0,0,.684-1.27q2.93,0,2.93.488v9.668q2.539,0,7.715.049t5.469.049q.781,0,.781.879a8.315,8.315,0,0,1-.977,3.711H231.152V-12.6a9.3,9.3,0,0,0,2,6.25A6.543,6.543,0,0,0,238.379-4a11.856,11.856,0,0,0,6.055-1.855q.293-.2.879.83t.488,1.123A15.959,15.959,0,0,1,241.309-.83a13.816,13.816,0,0,1-6.25,1.514A11.155,11.155,0,0,1,226.9-2.539q-3.271-3.223-3.271-9.18Z" transform="translate(278 2147.753) rotate(90)"/>
    <path id="パス_12677" data-name="パス 12677" d="M17.383-64.062q1.953,0,3.809-.1t4-.244q2.148-.146,3.516-.244a4.692,4.692,0,0,1,.2,1.465q0,1.367-.391,1.367A16.327,16.327,0,0,0,25-61.133q-2.539.684-2.734,1.367a37.76,37.76,0,0,0-.879,9.082V-8.3A34.4,34.4,0,0,1,14.5,13.086Q7.617,22.168-3.027,22.168a8.013,8.013,0,0,1-2.344-.391A13.726,13.726,0,0,1-7.422,21l-.684-.391a5.36,5.36,0,0,1-1.172-3.613,4.222,4.222,0,0,1,1.807-3.516,6.841,6.841,0,0,1,4.248-1.367q1.758,0,3.955,2.1t3.467,2.1a4.1,4.1,0,0,0,2.783-1.367,15.476,15.476,0,0,0,2.783-4,27.36,27.36,0,0,0,2.246-7.471A61.823,61.823,0,0,0,12.891-7.52V-51.074a38.673,38.673,0,0,0-.684-8.691q-.293-.781-2.783-1.416a16.747,16.747,0,0,0-3.76-.635q-.391,0-.391-1.27a2.262,2.262,0,0,1,.391-1.562q1.27.1,5.176.342T17.383-64.062ZM42.773-51.074a38.672,38.672,0,0,0-.684-8.691q-.293-.781-2.783-1.416a16.747,16.747,0,0,0-3.76-.635q-.391,0-.391-1.27a2.262,2.262,0,0,1,.391-1.562q11.23.488,11.719.488,1.563,0,11.328-.488a4.692,4.692,0,0,1,.2,1.465q0,1.367-.391,1.367a16.327,16.327,0,0,0-3.516.684q-2.539.684-2.734,1.367a37.76,37.76,0,0,0-.879,9.082v37.109a37.76,37.76,0,0,0,.879,9.082q.2.684,2.734,1.318a17.455,17.455,0,0,0,3.516.635q.391,0,.391,1.465a4.328,4.328,0,0,1-.2,1.367Q48.828-.2,47.266-.2q-.488,0-11.719.488a2.079,2.079,0,0,1-.391-1.465q0-1.367.391-1.367a18.031,18.031,0,0,0,3.76-.586q2.49-.586,2.783-1.367a38.672,38.672,0,0,0,.684-8.691Zm73.535-.1a38.059,38.059,0,0,0-.684-8.594q-.293-.781-3.369-1.514a22,22,0,0,0-4.346-.732q-.391,0-.391-1.123a2.169,2.169,0,0,1,.391-1.514q1.27.1,5.078.342t6.445.244q2.539,0,6.4-.293t4.541-.293a4.692,4.692,0,0,1,.2,1.465q0,1.172-.391,1.172a24.421,24.421,0,0,0-4.248.781q-3.271.781-3.467,1.465a39.121,39.121,0,0,0-.781,9.082v37.109q0,6.055.293,13.672a2.869,2.869,0,0,1-1.855.391q-1.66,0-3.223-2.246L79-55.469v41.7a41.186,41.186,0,0,0,.684,9.082q.2.684,3.271,1.416a22.729,22.729,0,0,0,4.053.732q.293,0,.342,1.172a4.441,4.441,0,0,1-.146,1.66Q77.441-.2,75.977-.2L64.746.293a2.318,2.318,0,0,1-.293-1.465q0-1.367.293-1.367a21.945,21.945,0,0,0,4.443-.732Q72.266-4,72.559-4.883q.977-2.539.977-9.18V-52.441a29.874,29.874,0,0,0-.684-7.324q-.293-.781-3.32-1.416a24.308,24.308,0,0,0-4.395-.635q-.391,0-.391-1.221a2.357,2.357,0,0,1,.391-1.611q7.617.2,9.961.2,5.078,0,7.813-.2,3.613,6.641,33.105,47.852a23.442,23.442,0,0,0,.293-4Zm22.266,30.664q0-4.98,1.172-4.98h.1l23.535-1.172h.1q.586,0,.586.879a14.261,14.261,0,0,1-.342,3.467,4.23,4.23,0,0,1-.635,1.611l-.293.2-23.535,1.074h-.2q-.1,0-.293-.293A1.388,1.388,0,0,1,138.574-20.508Zm66.6-43.945,19.531,51.563q1.758,4.59,2.832,7.031a4.84,4.84,0,0,0,3.027,2.393,11.559,11.559,0,0,0,3.613.928q.391,0,.391,1.855a3.213,3.213,0,0,1-.2.977Q224.609-.2,223.633-.2q-.1,0-11.328.488a2.228,2.228,0,0,1-.342-1.611q.049-1.221.439-1.221a11.356,11.356,0,0,0,2.93-.488q1.758-.488,2.051-1.27a6.421,6.421,0,0,0,.2-1.562,15.465,15.465,0,0,0-.342-2.979q-.342-1.709-.635-2.686l-.391-1.074-4-11.035a.787.787,0,0,0-.586-.391q-3.809-.293-7.422-.293-5.078,0-12.4.488l-.488.293-4.2,10.742a25.682,25.682,0,0,0-1.66,6.738A2.285,2.285,0,0,0,186.23-4.1a7.366,7.366,0,0,0,2.832,1.123,14.682,14.682,0,0,0,2.832.439q.293,0,.342,1.172a4.441,4.441,0,0,1-.146,1.66Q182.324-.2,182.031-.2q-1.953,0-3.418.1t-3.271.2q-1.807.1-3.467.2a2.079,2.079,0,0,1-.391-1.465q0-1.367.391-1.367a12.456,12.456,0,0,0,3.027-.488,4.64,4.64,0,0,0,2.539-1.367,39.057,39.057,0,0,0,4.59-9.18l16.992-43.652q.2-.488.537-1.562T200.1-60.4q.2-.537.586-1.367a7.4,7.4,0,0,1,.684-1.221q.293-.391.732-.879a2.434,2.434,0,0,1,.977-.684,3.557,3.557,0,0,1,1.221-.2ZM193.848-29.2q5.078.2,6.934.2,4.3,0,8.887-.293l.293-.488-7.91-21.582-8.4,21.777Q193.652-29.2,193.848-29.2Zm53.809-21.875a38.672,38.672,0,0,0-.684-8.691q-.293-.781-2.783-1.416a16.747,16.747,0,0,0-3.76-.635q-.391,0-.391-1.27a2.262,2.262,0,0,1,.391-1.562q11.23.488,11.719.488,1.563,0,11.328-.488a4.692,4.692,0,0,1,.2,1.465q0,1.367-.391,1.367a16.327,16.327,0,0,0-3.516.684q-2.539.684-2.734,1.367a37.76,37.76,0,0,0-.879,9.082v37.109a37.76,37.76,0,0,0,.879,9.082q.2.684,2.734,1.318a17.455,17.455,0,0,0,3.516.635q.391,0,.391,1.465a4.328,4.328,0,0,1-.2,1.367Q253.711-.2,252.148-.2q-.488,0-11.719.488a2.079,2.079,0,0,1-.391-1.465q0-1.367.391-1.367a18.031,18.031,0,0,0,3.76-.586q2.49-.586,2.783-1.367a38.672,38.672,0,0,0,.684-8.691Z" transform="translate(179 2235.753) rotate(90)"/>
    <g id="グループ_9429" data-name="グループ 9429" transform="translate(-133.5 -1270.247)">
      <path id="パス_12678" data-name="パス 12678" d="M4.14-8.676c.5-.216.576-.306.576-.45,0-.18-.162-.27-1.008-.414a23.324,23.324,0,0,0,1.944-4.212c.54-.072.738-.18.738-.36,0-.2-.36-.342-1.818-.774A12.405,12.405,0,0,1,4-12.528,19.1,19.1,0,0,1,.522-6.174c-.072.09.126.27.2.2A14.362,14.362,0,0,0,3.06-8.532c-.018,1.008-.018,1.98-.018,2.988C2.97-.738,2.934.45,2.934.774s.108.45.486.45c.486,0,.72-.18.72-.54Zm2.088-2.088a5.8,5.8,0,0,1,1.242-.108h8.478c.18,0,.234-.072.234-.18,0-.09-.054-.2-.468-.522-.864-.7-.954-.756-1.044-.756-.108,0-.2.054-1.008,1.008H7.47a6.523,6.523,0,0,1-1.422-.126ZM5.31-.666A7.036,7.036,0,0,1,6.678-.792h10.1c.162,0,.234-.054.234-.162s-.054-.216-.468-.558c-.918-.756-1.026-.81-1.116-.81-.108,0-.2.054-1.044,1.08H6.66a7.521,7.521,0,0,1-1.53-.126ZM25.794-4.788c.108-.18.234-.36.342-.54.5-.108.666-.162.666-.306,0-.18-.216-.288-1.458-.576A6.094,6.094,0,0,1,24.7-4.86,13.7,13.7,0,0,1,20.25-.576c-.09.054.018.252.126.216a11.9,11.9,0,0,0,4.878-3.672,10.791,10.791,0,0,0,2.2,2.412,19.349,19.349,0,0,1-7.362,2.772c-.108.018-.072.27.036.252a17.92,17.92,0,0,0,8.1-2.448,13.839,13.839,0,0,0,1.242.7A16.351,16.351,0,0,0,33.7,1.08a9.932,9.932,0,0,0,1.134.162c.18,0,.288-.108.36-.306.2-.558.4-.72.864-.81.09-.018.108-.18.018-.18a19.569,19.569,0,0,1-6.03-.99,10.432,10.432,0,0,1-1.116-.486,14.143,14.143,0,0,0,2.556-2.43c.54-.09.684-.18.684-.342,0-.108-.036-.2-.306-.45-.666-.558-.756-.612-.846-.612s-.162.054-.684.576Zm4.554.45a11.348,11.348,0,0,1-2.322,2.322,10.381,10.381,0,0,1-2.538-2.322ZM28.3-10.8a.708.708,0,0,0,.432-.72c0-.576-.7-1.188-1.6-1.566-.09-.036-.2.054-.144.126a3.147,3.147,0,0,1,.738,1.692c.036.288.126.414.306.468H24.7a.668.668,0,0,0,.432-.7c0-.576-.72-1.134-1.584-1.422-.072-.036-.18.054-.126.126a2.711,2.711,0,0,1,.7,1.458c.054.324.144.486.306.54h-2.5c-.018-.234-.036-.468-.072-.72-.018-.108-.2-.126-.216-.018A2.436,2.436,0,0,1,20.43-9.45a.648.648,0,0,0-.4.594.615.615,0,0,0,.63.63c.666,0,1.17-.9,1.242-2.124H34a9.774,9.774,0,0,1-.486,1.26c-.036.09.09.162.162.108.45-.342.7-.54,1.008-.792.18-.162.324-.162.666-.144.468.018.666-.072.666-.27,0-.108-.054-.234-.432-.576-.7-.63-.828-.7-.936-.7s-.18.036-.7.666H31.374a13.383,13.383,0,0,0,1.548-1.6c.576-.018.72-.108.72-.288,0-.162-.486-.432-1.494-.792a3.264,3.264,0,0,1-.216.684,11.356,11.356,0,0,1-1.062,2Zm4.086,1.836a4.565,4.565,0,0,1,1.3,2.142c.144.5.288.63.576.63.324,0,.576-.342.576-.792,0-.792-.954-1.692-2.322-2.142C32.4-9.162,32.31-9.036,32.382-8.964Zm-5.238-.81A3.312,3.312,0,0,1,28.278-8.3c.126.36.2.486.5.486.324,0,.5-.27.5-.666,0-.612-.828-1.224-2.052-1.458C27.144-9.954,27.072-9.828,27.144-9.774Zm-4.1.666a2.36,2.36,0,0,1-1.314,1.89c-.324.162-.486.342-.486.63a.631.631,0,0,0,.612.612c.828,0,1.458-1.17,1.458-2.52a5.539,5.539,0,0,0-.036-.594C23.256-9.2,23.058-9.216,23.04-9.108Zm2.718.054c.5-.162.576-.252.576-.414,0-.18-.108-.252-1.6-.45a8.268,8.268,0,0,1,.072,1.3c0,.576-.018.756-.018,1.026,0,1.044.486,1.26,3.222,1.26a12.193,12.193,0,0,0,3.186-.252c.414-.108.72-.342.72-.63a.354.354,0,0,0-.252-.378c-.234-.054-.288-.108-.288-.342,0-.144.036-.666.072-.972.018-.09-.144-.144-.18-.054a2.889,2.889,0,0,1-.774,1.476c-.324.252-.81.306-2.628.306-1.908,0-2.106-.09-2.106-.648Zm-3.96-3.96c.612.036,1.188.054,1.8.054a41.738,41.738,0,0,0,9.5-1.116c.648.234.9.2.9.018,0-.162-.45-.63-1.26-1.17a8.378,8.378,0,0,1-1.8.666,45.847,45.847,0,0,1-9.162,1.3C21.672-13.266,21.69-13.014,21.8-13.014Zm27.216,2.5A14.72,14.72,0,0,0,47.7-9.072a.429.429,0,0,0-.108.252c0,.09.108.144.2.144.072,0,.144-.054.234-.144a6.786,6.786,0,0,1,1.656-1.314,2.289,2.289,0,0,1,1.116-.288c.5,0,.954.054,1.26.054.378,0,.558-.144.558-.486,0-.4-.288-.684-1.44-.684a9.575,9.575,0,0,0-5.058,1.314c-.144.09-.216.18-.216.306a.176.176,0,0,0,.2.18.607.607,0,0,0,.216-.072,9.866,9.866,0,0,1,2.646-.828C49.086-10.656,49.1-10.6,49.014-10.512Zm-2.862,4.1c-.09,0-.144.036-.2.144A4.169,4.169,0,0,0,45.612-4.7,2.672,2.672,0,0,0,46.62-2.466c.954.774,2.718.936,4.032.936a12.008,12.008,0,0,0,2.556-.234c.36-.108.468-.27.468-.522,0-.414-.486-.594-1.08-.594a2.916,2.916,0,0,0-.72.09,9.2,9.2,0,0,1-2.106.216,5.077,5.077,0,0,1-2.754-.612A2.083,2.083,0,0,1,46.152-5a5.181,5.181,0,0,1,.144-1.17C46.314-6.3,46.3-6.408,46.152-6.408Zm-2.5-.27C43.2-5.49,42.8-4.338,42.408-3.2c-.036.09-.09.144-.162.144-.054,0-.108-.072-.144-.252a7.952,7.952,0,0,1-.108-1.4,15.32,15.32,0,0,1,.918-4.824,1.831,1.831,0,0,1,.342-.612,1.077,1.077,0,0,0,.252-.684,1.889,1.889,0,0,0-.45-1.188c-.288-.378-.828-.954-1.242-.954a.174.174,0,0,0-.162.162.4.4,0,0,0,.144.27,1.543,1.543,0,0,1,.558,1.152,6.407,6.407,0,0,1-.252,1.26,22.9,22.9,0,0,0-.864,5.382,10.023,10.023,0,0,0,.63,3.564c.216.5.432.648.7.648s.4-.162.4-.468c0-.252-.054-.63-.054-1.026a6.4,6.4,0,0,1,.234-1.242c.2-.828.522-2.016.9-3.276a.792.792,0,0,0,.036-.18.182.182,0,0,0-.2-.162C43.776-6.894,43.7-6.84,43.65-6.678Zm24.8-4.392a9.523,9.523,0,0,0-3.744.918,37.593,37.593,0,0,0-3.4,1.71,2.044,2.044,0,0,1-.972.342,1.466,1.466,0,0,1-1.044-.576.311.311,0,0,0-.216-.108c-.09,0-.162.09-.162.4a1.913,1.913,0,0,0,.612,1.008,2.116,2.116,0,0,0,1.188.666.72.72,0,0,0,.63-.306,4.427,4.427,0,0,1,.792-.684,24.216,24.216,0,0,1,2.79-1.71,7.91,7.91,0,0,1,3.51-1.008,3.182,3.182,0,0,1,3.456,2.988,4.4,4.4,0,0,1-2.412,3.8,13.911,13.911,0,0,1-5.382,1.8c-.252.036-.324.126-.324.252,0,.2.126.288.324.27A15.454,15.454,0,0,0,70.29-2.988C72.018-3.978,73.1-5.2,73.1-7.11,73.1-9.18,71.334-11.07,68.454-11.07Zm19.62,1.242a.347.347,0,0,0,.18.27A5.8,5.8,0,0,1,91.08-5.526a.286.286,0,0,1-.27.324c-.5.072-.882.108-1.368.162q-.27.027-.27.162c0,.126.054.216.234.234,1.17.144,1.512.306,1.764.666a.544.544,0,0,0,.468.234c.45,0,.684-.5.684-1.188,0-2.088-1.746-4.1-3.87-4.986C88.254-10.008,88.074-9.936,88.074-9.828ZM82.494-1.17a.47.47,0,0,0,.522-.468,1.4,1.4,0,0,0-.108-.558,1.116,1.116,0,0,1-.072-.414,2.319,2.319,0,0,1,.18-.666,20.432,20.432,0,0,1,1.422-3.06.86.86,0,0,0,.108-.324.2.2,0,0,0-.2-.18.339.339,0,0,0-.306.2c-.828,1.314-1.4,2.268-1.962,3.276-.108.2-.216.288-.36.288-.234,0-.576-.324-.882-.972a7,7,0,0,1-.486-3.078,8.4,8.4,0,0,1,.2-2.124,2.288,2.288,0,0,0,.162-.774,1.892,1.892,0,0,0-.846-1.314,2.127,2.127,0,0,0-1.08-.576c-.144,0-.252.054-.252.162,0,.054.054.126.162.234a1.991,1.991,0,0,1,.792,1.728c0,.45-.018.972-.018,1.476,0,2.7.306,4.914,1.818,6.426A2.245,2.245,0,0,0,82.494-1.17Zm23.346-9.684a6.482,6.482,0,0,0-3.4,5.544A4.268,4.268,0,0,0,104-1.872a7.7,7.7,0,0,0,4.5,1.494c.558,0,.828-.2.828-.468a.667.667,0,0,0-.432-.648,3.424,3.424,0,0,0-1.368-.306A5.282,5.282,0,0,1,104.4-2.916a3.575,3.575,0,0,1-1.224-2.916,5.682,5.682,0,0,1,3.636-4.842,10.624,10.624,0,0,1,3.492-.594c.378-.018.594-.234.594-.486a.629.629,0,0,0-.486-.54,2.654,2.654,0,0,0-1.026-.234,1.1,1.1,0,0,0-.594.18,3.726,3.726,0,0,1-.846.288c-2.772.7-5.454,1.4-7.812,2a6.657,6.657,0,0,1-1.152.2,1.41,1.41,0,0,1-1.206-.63c-.108-.108-.162-.162-.234-.162-.108,0-.18.108-.18.342a2.016,2.016,0,0,0,.486,1.026,1.731,1.731,0,0,0,1.188.738.926.926,0,0,0,.612-.2,9.077,9.077,0,0,1,1.332-.612c1.458-.522,3.186-1.062,4.824-1.548Z" transform="translate(610.994 3464)"/>
      <line id="線_769" data-name="線 769" x1="90" transform="translate(511.5 3457.5)" fill="none" stroke="#333" stroke-width="1"/>
    </g>
  </g>
</svg>
